<svg xmlns="http://www.w3.org/2000/svg" xmlns:xlink="http://www.w3.org/1999/xlink" id="svg" version="1.1" width="400" height="393.10344827586204" viewBox="0, 0, 400,393.10344827586204"><g id="svgg"><path id="path0" d="M150.639 60.140 C 149.449 60.269,147.768 60.750,146.903 61.211 C 145.000 62.223,144.269 62.385,138.319 63.116 C 134.175 63.625,133.527 63.811,132.378 64.819 C 131.479 65.609,130.326 66.097,128.573 66.430 C 124.986 67.112,124.846 67.171,124.377 68.200 C 123.961 69.113,121.099 70.403,119.489 70.403 C 119.090 70.403,118.556 70.860,118.301 71.418 C 118.047 71.976,117.122 72.796,116.245 73.241 C 115.368 73.685,114.040 74.582,113.294 75.233 C 112.548 75.884,111.207 76.739,110.315 77.134 C 109.392 77.542,108.494 78.287,108.233 78.859 C 107.981 79.412,107.181 80.215,106.457 80.643 C 105.732 81.070,104.942 81.853,104.701 82.382 C 104.460 82.912,103.745 83.612,103.113 83.939 C 102.480 84.266,101.592 85.162,101.139 85.931 C 100.685 86.699,99.872 87.496,99.332 87.701 C 98.760 87.919,98.240 88.512,98.087 89.125 C 97.942 89.703,97.037 91.141,96.077 92.320 C 95.116 93.499,94.154 94.970,93.938 95.589 C 93.722 96.208,92.966 97.057,92.258 97.475 C 91.159 98.123,90.931 98.524,90.709 100.198 C 90.461 102.064,89.886 102.967,87.943 104.539 C 87.574 104.837,87.315 105.646,87.313 106.505 C 87.310 108.695,86.650 110.654,85.373 112.261 C 84.463 113.406,84.177 114.242,83.981 116.339 C 83.455 121.952,82.927 124.563,81.896 126.647 L 80.826 128.810 80.721 187.882 C 80.627 241.042,80.679 247.123,81.242 248.649 C 82.624 252.402,82.994 253.936,83.567 258.305 C 83.896 260.813,84.430 263.234,84.754 263.684 C 85.078 264.135,85.598 264.857,85.908 265.290 C 86.218 265.723,86.735 267.367,87.057 268.944 C 87.504 271.132,87.880 271.998,88.644 272.599 C 89.254 273.079,89.914 274.264,90.331 275.631 C 90.798 277.163,91.428 278.229,92.312 278.986 C 93.025 279.597,93.609 280.330,93.609 280.615 C 93.609 280.900,94.383 282.185,95.330 283.471 C 96.277 284.757,97.278 286.237,97.554 286.759 C 97.830 287.282,98.781 288.436,99.667 289.325 C 100.553 290.214,101.485 291.157,101.738 291.422 C 102.594 292.316,104.534 294.278,105.206 294.929 C 105.574 295.284,106.610 296.302,107.509 297.190 C 108.409 298.077,109.676 299.084,110.324 299.425 C 110.973 299.767,111.965 300.484,112.529 301.019 C 113.092 301.553,114.270 302.356,115.146 302.803 C 116.023 303.250,117.096 304.069,117.531 304.622 C 117.991 305.207,119.146 305.872,120.292 306.213 C 121.375 306.534,122.969 307.388,123.833 308.110 C 124.930 309.027,126.109 309.562,127.742 309.883 C 129.033 310.137,130.873 310.868,131.851 311.516 C 133.296 312.473,134.408 312.798,137.902 313.284 C 142.502 313.924,144.414 314.411,145.836 315.304 C 149.020 317.303,268.574 317.244,272.432 315.242 C 273.584 314.644,276.926 313.879,281.906 313.074 C 283.474 312.821,284.867 312.434,285.003 312.215 C 285.401 311.570,289.194 309.939,290.306 309.935 C 290.869 309.933,291.930 309.496,292.666 308.964 C 294.579 307.579,296.822 306.391,297.525 306.391 C 297.857 306.391,298.794 305.804,299.606 305.087 C 300.417 304.369,302.027 303.210,303.183 302.511 C 304.339 301.812,305.656 300.895,306.109 300.473 C 306.562 300.050,307.093 299.705,307.288 299.705 C 307.644 299.705,309.284 298.168,314.001 293.412 C 319.288 288.082,321.006 286.008,323.289 282.203 C 323.808 281.337,324.821 279.965,325.538 279.153 C 326.256 278.341,326.844 277.405,326.844 277.073 C 326.844 276.369,328.031 274.126,329.416 272.213 C 329.948 271.478,330.383 270.483,330.383 270.001 C 330.383 268.733,331.474 265.836,332.301 264.908 C 333.017 264.104,333.652 261.598,334.146 257.632 C 334.294 256.448,334.757 254.501,335.175 253.305 C 335.593 252.109,336.138 250.511,336.385 249.754 C 336.998 247.881,337.284 136.153,336.691 130.212 C 336.426 127.553,335.991 125.505,335.455 124.398 C 334.976 123.408,334.302 120.515,333.851 117.510 C 333.223 113.321,332.894 112.117,332.133 111.211 C 331.210 110.115,330.720 108.707,330.198 105.659 C 330.055 104.824,329.508 103.710,328.983 103.185 C 327.827 102.030,327.032 100.535,326.664 98.825 C 326.510 98.109,325.925 97.222,325.328 96.796 C 324.743 96.380,323.871 95.250,323.390 94.286 C 322.908 93.322,322.096 92.111,321.585 91.596 C 321.074 91.080,320.295 89.945,319.853 89.073 C 319.410 88.200,318.590 87.241,318.030 86.941 C 317.469 86.641,317.011 86.265,317.011 86.104 C 317.011 85.689,312.097 80.778,310.894 79.990 C 310.342 79.628,309.630 78.828,309.311 78.211 C 308.992 77.594,308.487 77.089,308.188 77.089 C 307.890 77.089,306.889 76.457,305.964 75.685 C 305.039 74.912,303.563 73.920,302.682 73.480 C 301.802 73.040,300.462 72.108,299.705 71.409 C 298.948 70.711,297.573 69.925,296.650 69.663 C 295.727 69.402,294.360 68.650,293.611 67.993 C 292.646 67.146,291.476 66.636,289.586 66.242 C 288.121 65.936,286.480 65.330,285.939 64.895 C 284.437 63.686,283.303 63.314,279.859 62.904 C 275.506 62.385,273.041 61.791,271.190 60.812 L 269.617 59.980 211.209 59.944 C 179.086 59.924,151.829 60.012,150.639 60.140 M192.947 115.013 C 194.014 115.320,195.906 115.775,197.151 116.024 C 198.451 116.285,200.227 117.024,201.320 117.760 C 202.368 118.465,204.004 119.350,204.956 119.728 C 205.908 120.106,207.150 120.854,207.717 121.392 C 208.564 122.195,208.788 122.263,208.976 121.771 C 209.103 121.442,210.055 120.742,211.093 120.216 C 212.130 119.690,213.333 118.862,213.766 118.376 C 217.451 114.237,239.029 114.169,241.935 118.287 C 242.234 118.711,243.066 119.360,243.784 119.730 C 244.502 120.100,245.449 121.011,245.888 121.755 C 246.326 122.499,246.920 123.107,247.207 123.107 C 247.493 123.107,248.139 123.652,248.643 124.317 C 249.146 124.983,249.932 125.912,250.390 126.382 C 251.141 127.154,252.111 128.818,254.555 133.530 C 255.004 134.395,255.568 135.534,255.808 136.060 C 256.048 136.587,256.885 137.383,257.667 137.830 C 260.236 139.298,262.281 140.983,262.951 142.183 C 263.313 142.832,264.159 143.717,264.832 144.150 C 265.504 144.583,266.260 145.350,266.511 145.854 C 266.762 146.358,267.497 147.331,268.143 148.016 C 268.789 148.702,269.637 150.147,270.026 151.229 C 270.415 152.311,270.960 153.466,271.238 153.796 C 273.767 156.804,274.714 163.159,273.999 172.325 C 273.591 177.553,273.785 179.112,275.082 181.023 C 275.589 181.770,276.390 183.544,276.863 184.966 C 277.337 186.388,277.991 187.773,278.318 188.044 C 280.110 189.531,280.237 190.422,280.219 201.377 C 280.202 212.545,280.014 213.710,278.069 214.751 C 277.638 214.982,277.285 215.474,277.284 215.845 C 277.277 218.104,276.319 219.689,272.926 223.063 C 270.998 224.981,269.420 226.743,269.420 226.980 C 269.420 227.217,269.090 227.880,268.686 228.455 C 268.282 229.029,267.650 231.158,267.280 233.187 C 265.438 243.305,262.077 248.969,255.457 253.112 C 254.808 253.518,253.796 254.240,253.208 254.716 C 252.620 255.193,251.241 255.881,250.145 256.245 C 249.049 256.609,247.283 257.491,246.222 258.205 C 243.735 259.879,237.046 260.378,227.827 259.579 L 222.073 259.079 220.547 257.613 C 219.411 256.522,218.567 256.084,217.247 255.904 C 215.736 255.696,215.000 255.224,212.265 252.707 C 208.615 249.349,208.784 249.413,207.134 250.766 C 203.750 253.541,200.393 255.751,198.858 256.213 C 197.920 256.495,196.317 257.301,195.297 258.002 C 190.960 260.986,171.348 260.641,168.580 257.532 C 167.855 256.717,166.713 255.978,165.782 255.719 C 162.256 254.742,155.681 248.754,154.078 245.060 C 153.649 244.073,152.976 242.911,152.583 242.478 C 151.431 241.211,149.013 234.439,148.790 231.858 C 148.536 228.906,147.094 225.672,145.762 225.065 C 145.217 224.817,144.402 223.890,143.951 223.005 C 143.500 222.121,142.881 221.301,142.576 221.184 C 141.877 220.916,140.020 217.235,140.020 216.117 C 140.020 215.657,139.582 214.868,139.046 214.365 C 135.723 211.243,135.561 189.515,138.834 185.788 C 139.486 185.045,140.020 184.168,140.020 183.839 C 140.020 183.080,141.468 179.866,142.412 178.528 C 143.073 177.592,143.095 177.161,142.691 173.219 C 142.159 168.026,142.177 164.586,142.743 163.101 C 142.976 162.492,143.166 160.955,143.166 159.685 C 143.166 156.888,143.574 155.730,145.246 153.776 C 145.950 152.954,146.849 151.382,147.244 150.283 C 147.640 149.184,148.433 147.883,149.006 147.393 C 149.580 146.903,150.308 146.002,150.625 145.391 C 150.942 144.779,151.668 144.038,152.238 143.743 C 152.809 143.448,153.579 142.744,153.949 142.178 C 154.320 141.613,155.388 140.822,156.324 140.421 C 157.259 140.020,158.089 139.544,158.167 139.364 C 158.245 139.184,158.975 138.539,159.788 137.931 C 160.602 137.324,161.540 136.175,161.872 135.380 C 162.204 134.585,162.788 133.578,163.170 133.142 C 163.552 132.706,164.184 131.296,164.574 130.007 C 164.993 128.624,165.726 127.250,166.362 126.656 C 166.956 126.101,167.560 125.273,167.705 124.816 C 168.029 123.796,172.536 119.567,173.299 119.567 C 173.602 119.567,174.247 119.108,174.732 118.547 C 176.033 117.042,177.322 116.501,181.186 115.841 C 183.097 115.514,185.280 115.087,186.037 114.891 C 188.139 114.347,190.800 114.394,192.947 115.013 M185.849 132.183 C 184.989 132.397,183.828 133.009,183.271 133.543 C 182.714 134.076,182.043 134.513,181.781 134.513 C 181.326 134.513,181.085 134.964,179.530 138.735 C 178.799 140.510,178.941 145.991,179.758 147.518 C 179.967 147.908,180.138 149.594,180.138 151.264 L 180.138 154.300 178.564 155.752 C 177.699 156.551,176.991 157.396,176.991 157.630 C 176.991 159.776,171.131 160.401,166.559 158.741 L 163.957 157.796 162.313 159.573 C 158.723 163.452,158.401 169.568,161.702 171.154 C 163.792 172.158,165.338 175.485,165.120 178.508 C 164.905 181.469,163.488 183.728,159.243 187.871 C 157.506 189.567,155.824 191.571,155.506 192.325 C 155.188 193.079,154.599 194.053,154.198 194.488 C 152.130 196.732,152.054 204.365,154.080 206.391 C 154.781 207.091,156.539 211.076,156.539 211.963 C 156.539 212.145,157.068 212.513,157.715 212.781 C 158.362 213.049,159.237 213.827,159.659 214.510 C 160.235 215.441,160.995 215.935,162.710 216.492 C 163.967 216.900,165.703 217.627,166.568 218.107 C 167.434 218.588,169.432 219.196,171.008 219.460 C 175.536 220.216,176.991 222.057,176.991 227.027 C 176.991 230.981,175.344 233.204,170.993 235.121 C 168.627 236.163,168.620 236.126,171.762 238.938 C 178.142 244.647,184.800 246.047,188.791 242.519 C 189.331 242.040,190.719 241.223,191.874 240.701 C 194.418 239.554,198.327 235.000,199.049 232.343 C 200.376 227.464,200.760 203.957,199.570 200.464 C 198.831 198.296,198.416 197.947,197.517 198.736 C 195.137 200.826,189.692 202.097,186.518 201.304 C 179.681 199.597,180.532 188.503,187.730 185.504 C 189.561 184.740,194.273 180.613,195.569 178.637 C 199.832 172.140,199.803 172.301,199.803 155.005 C 199.803 138.982,199.487 136.540,197.295 135.632 C 196.651 135.365,195.096 134.460,193.841 133.622 C 191.314 131.935,188.724 131.468,185.849 132.183 M224.025 132.319 C 223.076 132.613,222.160 133.270,221.640 134.028 C 221.175 134.706,220.345 135.711,219.794 136.262 C 217.768 138.288,217.377 140.751,217.207 152.580 C 216.988 167.801,217.726 173.133,220.690 177.730 C 222.125 179.956,223.314 181.275,224.823 182.314 C 225.989 183.117,226.942 183.938,226.942 184.140 C 226.942 184.342,227.960 184.956,229.204 185.505 C 230.447 186.054,231.616 186.769,231.801 187.095 C 231.986 187.421,232.584 188.068,233.130 188.534 C 236.065 191.035,235.929 197.821,232.898 200.134 C 230.169 202.216,222.477 201.730,219.971 199.317 L 218.704 198.096 217.915 199.835 C 215.580 204.981,217.045 231.306,219.888 235.290 C 220.547 236.215,221.431 237.517,221.851 238.183 C 222.271 238.850,223.544 239.977,224.680 240.689 C 225.816 241.400,227.188 242.285,227.729 242.655 C 230.760 244.727,238.206 244.743,240.511 242.683 C 240.944 242.296,242.319 241.486,243.568 240.883 C 245.518 239.940,248.574 237.080,248.574 236.198 C 248.574 236.061,247.822 235.617,246.903 235.210 C 241.813 232.957,240.050 230.469,240.406 226.038 C 240.767 221.539,242.000 220.341,247.198 219.444 C 248.914 219.147,250.342 218.641,250.990 218.099 C 251.562 217.622,253.189 216.899,254.605 216.493 C 256.499 215.951,257.289 215.516,257.594 214.848 C 257.821 214.349,258.628 213.574,259.387 213.126 C 260.146 212.678,260.767 212.187,260.767 212.035 C 260.767 211.883,261.451 210.706,262.286 209.419 C 265.029 205.197,265.615 198.564,263.531 195.333 C 263.094 194.655,262.365 193.330,261.912 192.389 C 261.023 190.542,258.705 188.001,256.335 186.278 C 251.364 182.662,251.101 174.364,255.873 171.692 C 258.333 170.315,258.742 165.482,256.653 162.456 C 256.124 161.689,255.232 160.021,254.672 158.749 L 253.652 156.437 251.944 156.671 C 250.768 156.832,249.863 157.277,249.042 158.099 C 245.065 162.075,236.364 157.844,236.959 152.223 C 237.063 151.244,237.255 149.415,237.386 148.159 C 237.571 146.377,237.886 145.577,238.823 144.510 C 240.216 142.923,240.211 140.613,238.811 139.096 C 238.382 138.631,237.756 137.584,237.420 136.769 C 237.085 135.955,236.493 135.190,236.104 135.069 C 235.079 134.750,233.265 133.838,231.465 132.736 C 229.690 131.650,226.725 131.484,224.025 132.319 " stroke="none" fill="#7066c7" fill-rule="evenodd"/><path id="path1" d="M0.000 196.657 L 0.000 393.314 200.000 393.314 L 400.000 393.314 400.000 196.657 L 400.000 0.000 200.000 0.000 L 0.000 0.000 0.000 196.657 M274.937 57.841 C 276.770 58.071,279.331 58.708,280.629 59.257 C 281.927 59.806,284.228 60.503,285.742 60.805 C 287.257 61.107,289.558 61.904,290.855 62.575 C 292.153 63.247,294.154 64.126,295.300 64.529 C 296.447 64.932,298.187 65.803,299.167 66.464 C 300.148 67.126,301.611 68.004,302.418 68.416 C 303.226 68.828,304.130 69.458,304.426 69.815 C 304.723 70.172,305.811 70.893,306.845 71.417 C 308.629 72.321,309.359 72.900,313.996 77.089 C 318.917 81.535,323.962 87.545,325.140 90.364 C 325.467 91.146,326.219 92.240,326.811 92.796 C 327.403 93.351,328.217 94.690,328.619 95.772 C 329.021 96.853,329.830 98.300,330.417 98.986 C 331.087 99.768,331.709 101.213,332.085 102.862 C 332.415 104.308,333.040 105.871,333.474 106.335 C 334.502 107.432,334.898 108.545,335.456 111.898 C 335.707 113.412,336.442 115.713,337.088 117.011 C 339.017 120.883,339.088 123.818,338.932 192.330 C 338.782 258.244,338.842 256.303,336.884 259.194 C 336.271 260.099,335.793 261.648,335.488 263.717 C 334.955 267.341,334.376 268.916,333.191 269.972 C 332.728 270.385,332.348 271.093,332.346 271.546 C 332.338 273.069,331.166 276.264,330.245 277.271 C 329.743 277.820,329.008 279.154,328.610 280.236 C 328.213 281.318,327.403 282.657,326.811 283.212 C 326.219 283.768,325.444 284.918,325.089 285.769 C 324.734 286.620,323.950 287.847,323.346 288.496 C 322.743 289.145,321.830 290.285,321.319 291.029 C 318.886 294.573,309.476 303.142,306.577 304.454 C 305.706 304.848,304.583 305.608,304.080 306.143 C 303.578 306.677,302.256 307.506,301.141 307.984 C 300.027 308.462,298.624 309.265,298.023 309.769 C 297.423 310.272,295.919 310.977,294.680 311.336 C 291.802 312.169,291.083 312.489,289.848 313.487 C 289.196 314.013,287.513 314.537,285.088 314.968 C 283.025 315.334,281.075 315.852,280.756 316.117 C 277.953 318.451,274.393 318.573,209.440 318.566 C 143.864 318.558,140.098 318.436,136.873 316.213 C 136.332 315.840,134.562 315.324,132.940 315.068 C 129.098 314.459,127.867 314.041,126.658 312.933 C 126.099 312.421,124.672 311.810,123.398 311.537 C 122.151 311.271,120.647 310.645,120.054 310.147 C 119.462 309.649,117.809 308.711,116.381 308.064 C 114.952 307.416,113.536 306.535,113.234 306.105 C 112.932 305.676,111.951 304.989,111.055 304.579 C 106.385 302.445,94.010 289.955,92.062 285.411 C 91.650 284.451,91.115 283.543,90.872 283.393 C 90.270 283.021,88.680 280.459,88.303 279.253 C 88.133 278.712,87.584 277.778,87.082 277.178 C 86.580 276.577,85.876 275.073,85.518 273.835 C 84.686 270.961,84.364 270.236,83.378 269.017 C 82.869 268.388,82.350 266.730,81.962 264.494 C 81.609 262.462,80.852 259.950,80.179 258.575 C 78.284 254.705,78.214 251.824,78.384 184.071 C 78.548 119.111,78.528 119.796,80.340 116.849 C 80.793 116.112,81.486 113.811,81.878 111.736 C 82.319 109.406,82.895 107.589,83.386 106.981 C 84.367 105.767,84.685 105.046,85.538 102.108 C 85.908 100.833,86.636 99.365,87.157 98.845 C 87.677 98.325,88.102 97.753,88.102 97.574 C 88.102 96.786,89.724 93.688,90.499 92.994 C 90.967 92.575,91.664 91.506,92.048 90.618 C 93.880 86.376,105.442 74.340,110.391 71.523 C 111.220 71.051,112.340 70.272,112.881 69.791 C 113.422 69.310,114.606 68.545,115.513 68.090 C 116.420 67.636,117.799 66.832,118.577 66.303 C 119.356 65.775,120.915 65.039,122.042 64.668 C 123.169 64.296,124.999 63.483,126.109 62.860 C 127.220 62.237,129.432 61.463,131.026 61.141 C 132.619 60.818,135.082 60.030,136.498 59.389 C 138.253 58.594,140.131 58.112,142.398 57.876 C 147.360 57.357,270.820 57.326,274.937 57.841 M185.054 118.524 C 184.189 118.774,183.127 119.175,182.694 119.416 C 182.262 119.658,180.757 120.233,179.351 120.695 C 177.694 121.239,176.172 122.095,175.025 123.127 C 174.051 124.003,172.797 124.998,172.237 125.337 C 171.285 125.914,168.732 129.663,168.732 130.482 C 168.732 130.685,168.392 131.159,167.976 131.535 C 167.561 131.911,167.007 133.133,166.744 134.251 C 165.945 137.659,163.743 140.697,161.074 142.072 C 157.813 143.753,151.819 149.220,151.819 150.514 C 151.819 150.707,151.295 151.478,150.655 152.227 C 150.015 152.976,149.484 153.769,149.475 153.989 C 149.466 154.210,149.017 155.041,148.476 155.837 C 147.840 156.773,147.493 157.829,147.493 158.828 C 147.493 159.677,147.141 161.168,146.711 162.140 C 145.814 164.166,145.740 165.814,146.132 174.953 L 146.408 181.371 144.605 183.049 C 142.545 184.968,142.165 185.795,141.337 190.159 C 141.009 191.889,140.377 194.102,139.934 195.075 C 138.331 198.593,138.708 207.818,140.535 209.789 C 141.027 210.321,141.754 211.787,142.150 213.047 C 142.547 214.308,143.380 215.921,144.002 216.631 C 144.624 217.342,145.133 218.164,145.133 218.459 C 145.133 218.753,146.633 220.561,148.466 222.477 C 152.218 226.397,152.999 228.015,152.999 231.870 C 152.999 233.719,153.239 234.749,154.005 236.189 C 154.558 237.229,155.435 239.127,155.955 240.406 C 156.475 241.684,157.438 243.344,158.096 244.093 C 158.754 244.842,159.292 245.616,159.292 245.813 C 159.292 246.371,163.907 250.933,164.482 250.943 C 165.486 250.960,168.396 252.504,169.496 253.605 C 170.251 254.360,171.364 254.888,172.918 255.230 C 174.185 255.509,175.841 256.064,176.598 256.464 C 178.735 257.595,180.711 257.980,182.380 257.593 C 183.202 257.402,184.954 257.242,186.274 257.237 C 188.797 257.227,190.930 256.687,191.964 255.798 C 192.304 255.506,193.626 254.908,194.901 254.469 C 196.177 254.030,197.669 253.242,198.217 252.717 C 198.765 252.192,199.849 251.497,200.626 251.173 C 201.402 250.848,202.484 249.998,203.029 249.283 C 203.578 248.564,205.067 247.484,206.367 246.863 L 208.714 245.741 211.100 246.946 C 212.663 247.735,213.777 248.622,214.330 249.516 C 214.948 250.515,215.686 251.051,217.083 251.515 C 218.133 251.864,219.763 252.732,220.706 253.444 C 221.713 254.206,223.306 254.933,224.573 255.210 C 225.758 255.469,227.642 256.114,228.759 256.642 C 232.751 258.531,239.002 258.132,243.854 255.680 C 245.044 255.078,246.474 254.477,247.032 254.343 C 247.590 254.209,248.829 253.477,249.785 252.716 C 250.742 251.956,252.062 251.154,252.719 250.934 C 253.377 250.714,254.228 250.004,254.611 249.356 C 254.994 248.707,255.815 247.914,256.436 247.593 C 257.057 247.272,257.678 246.654,257.816 246.218 C 257.954 245.783,258.665 244.971,259.395 244.414 C 260.745 243.384,261.597 241.442,262.142 238.151 C 262.285 237.286,262.729 235.835,263.127 234.926 C 263.526 234.017,263.979 232.248,264.134 230.993 C 264.649 226.840,265.180 225.958,270.131 221.037 C 275.118 216.081,275.520 215.365,275.986 210.619 C 276.125 209.204,276.472 208.342,277.224 207.546 C 280.041 204.564,277.610 191.004,273.207 185.134 C 272.687 184.441,271.776 182.333,271.182 180.449 L 270.102 177.025 270.984 173.205 C 271.606 170.515,271.795 168.794,271.624 167.387 C 271.491 166.288,271.269 164.238,271.131 162.832 C 270.952 161.014,270.623 159.967,269.990 159.207 C 269.500 158.619,268.721 157.003,268.259 155.614 C 267.798 154.226,267.054 152.760,266.608 152.356 C 266.162 151.953,265.477 150.997,265.087 150.234 C 264.220 148.534,258.409 142.784,256.021 141.263 C 253.521 139.670,251.440 137.196,250.942 135.224 C 249.858 130.934,241.892 121.616,238.741 120.954 C 237.984 120.794,236.142 120.133,234.648 119.484 C 231.291 118.027,226.982 117.637,223.992 118.521 C 219.777 119.768,214.947 122.019,214.021 123.168 C 213.513 123.799,212.097 124.820,210.875 125.436 L 208.653 126.556 206.167 125.380 C 204.653 124.664,203.516 123.840,203.257 123.273 C 202.992 122.689,202.156 122.100,201.023 121.696 C 200.028 121.341,198.151 120.556,196.853 119.951 C 192.563 117.952,188.675 117.482,185.054 118.524 M192.330 128.408 C 192.871 128.721,194.557 129.575,196.076 130.306 C 197.940 131.202,199.393 132.263,200.541 133.566 C 203.713 137.165,203.526 135.921,203.655 154.351 L 203.769 170.846 202.305 174.956 C 201.026 178.545,200.652 179.197,199.354 180.094 C 198.536 180.659,197.860 181.359,197.852 181.649 C 197.822 182.685,192.931 187.015,190.306 188.329 C 186.428 190.269,183.426 194.500,185.238 195.470 C 185.639 195.685,186.364 196.502,186.849 197.287 C 187.855 198.915,190.439 199.012,192.111 197.486 C 192.556 197.080,193.363 196.615,193.904 196.453 C 194.444 196.291,195.734 195.753,196.768 195.257 C 200.555 193.442,202.517 193.893,203.314 196.763 C 204.129 199.698,203.725 231.880,202.852 233.628 C 200.814 237.704,198.057 240.991,194.318 243.801 C 187.953 248.585,173.195 248.624,171.683 243.861 C 171.543 243.420,170.866 242.773,170.179 242.423 C 163.859 239.205,162.937 233.026,168.519 231.302 C 171.867 230.268,172.541 229.798,173.492 227.837 L 174.299 226.175 172.604 224.208 C 170.810 222.125,170.165 221.875,164.922 221.227 C 160.297 220.656,152.965 214.171,151.046 208.954 C 150.587 207.707,149.925 206.068,149.575 205.313 C 147.928 201.758,149.784 192.012,152.641 189.215 C 153.432 188.441,154.280 187.418,154.525 186.943 C 154.771 186.467,155.487 185.774,156.118 185.401 C 156.748 185.029,157.488 184.306,157.762 183.794 C 158.035 183.283,158.823 182.516,159.512 182.090 C 162.279 180.380,161.592 175.172,158.312 172.988 C 153.655 169.888,154.294 162.375,159.680 156.905 C 160.440 156.133,161.547 154.761,162.140 153.857 C 163.683 151.503,167.133 152.549,169.316 156.032 C 170.033 157.176,170.294 157.297,172.075 157.309 L 174.041 157.324 175.097 155.260 C 176.818 151.893,177.046 150.520,176.169 148.800 C 174.844 146.201,175.073 138.873,176.533 137.182 C 177.146 136.471,178.075 134.839,178.597 133.556 C 179.252 131.948,179.898 131.030,180.674 130.606 C 181.294 130.267,182.387 129.606,183.104 129.136 C 185.203 127.761,190.493 127.344,192.330 128.408 M233.763 129.762 C 241.484 133.693,243.067 137.050,241.691 146.574 C 241.321 149.134,240.758 151.732,240.441 152.347 C 240.123 152.962,239.921 153.507,239.991 153.557 C 243.443 156.047,245.538 156.151,249.291 154.022 C 250.979 153.064,252.639 152.221,252.980 152.148 C 254.035 151.923,258.529 157.000,259.376 159.375 C 259.784 160.519,260.485 161.957,260.934 162.569 C 261.583 163.455,261.779 164.407,261.889 167.216 L 262.027 170.749 259.394 173.378 C 255.052 177.714,254.937 179.362,258.721 183.020 C 259.954 184.213,261.406 185.624,261.947 186.156 C 268.014 192.120,269.906 203.018,266.138 210.304 C 265.098 212.315,259.350 217.785,257.733 218.301 C 256.914 218.563,255.785 219.205,255.223 219.728 C 254.476 220.425,253.163 220.888,250.316 221.461 C 248.179 221.891,246.318 222.371,246.181 222.527 C 246.044 222.684,245.270 223.561,244.461 224.476 L 242.990 226.140 243.807 227.828 C 244.700 229.672,245.754 230.430,248.813 231.427 C 253.122 232.830,254.142 236.031,251.202 238.929 C 250.212 239.905,249.260 240.936,249.087 241.221 C 247.444 243.909,238.780 247.792,234.444 247.783 C 232.096 247.777,225.832 246.215,224.401 245.278 C 222.402 243.967,217.327 238.445,216.590 236.777 C 216.160 235.802,215.394 234.379,214.888 233.613 C 212.884 230.581,212.295 199.872,214.179 196.657 C 215.567 194.289,223.820 195.407,225.545 198.197 C 226.129 199.141,229.522 198.699,230.109 197.602 C 230.410 197.040,231.148 196.166,231.750 195.660 C 232.352 195.153,232.680 194.637,232.479 194.512 C 232.277 194.388,231.900 193.625,231.641 192.817 C 230.975 190.744,230.348 190.153,226.697 188.163 C 222.581 185.920,217.562 181.050,216.510 178.279 C 216.118 177.246,215.441 175.917,215.007 175.325 C 212.768 172.277,212.395 140.983,214.562 137.957 C 215.066 137.253,215.944 135.704,216.513 134.514 C 219.683 127.890,226.434 126.031,233.763 129.762 " stroke="none" fill="#fbfbfb" fill-rule="evenodd"/><path id="path2" d="M146.096 59.025 C 144.570 59.206,141.915 59.794,140.196 60.333 C 138.477 60.871,135.842 61.592,134.340 61.936 C 132.839 62.279,130.273 63.155,128.637 63.882 C 127.002 64.608,125.044 65.400,124.287 65.641 C 123.530 65.881,122.114 66.608,121.141 67.256 C 120.167 67.903,119.192 68.434,118.974 68.435 C 118.542 68.437,112.804 72.194,109.341 74.743 C 106.092 77.135,97.601 85.709,95.461 88.760 C 91.531 94.364,90.838 95.444,89.702 97.738 C 89.060 99.036,88.172 100.629,87.731 101.278 C 87.289 101.927,86.548 103.609,86.084 105.015 C 85.620 106.421,84.838 108.279,84.346 109.145 C 83.854 110.010,83.158 112.186,82.798 113.981 C 82.438 115.775,81.724 118.478,81.210 119.987 C 79.508 124.993,79.449 127.266,79.449 188.490 C 79.449 248.522,79.510 251.071,81.046 255.515 C 81.484 256.781,82.203 259.499,82.645 261.554 C 83.087 263.609,83.852 265.998,84.345 266.863 C 84.838 267.729,85.631 269.622,86.107 271.070 C 86.583 272.519,87.304 274.125,87.709 274.640 C 88.114 275.155,88.903 276.536,89.463 277.709 C 90.445 279.768,90.959 280.575,95.065 286.498 C 97.537 290.063,105.266 298.060,108.751 300.656 C 114.582 305.000,124.117 310.718,125.531 310.718 C 125.846 310.718,127.366 311.340,128.909 312.100 C 130.452 312.860,132.300 313.571,133.015 313.681 C 134.140 313.854,134.093 313.806,132.674 313.333 C 131.771 313.031,130.443 312.425,129.724 311.985 C 129.005 311.546,127.484 310.912,126.343 310.577 C 125.202 310.242,123.252 309.340,122.009 308.573 C 120.766 307.806,119.544 307.178,119.295 307.178 C 119.045 307.178,117.998 306.534,116.967 305.748 C 115.937 304.961,114.222 303.804,113.157 303.176 C 112.092 302.548,110.961 301.775,110.645 301.458 C 110.328 301.141,109.330 300.368,108.427 299.739 C 106.268 298.236,97.752 289.392,95.859 286.687 C 92.184 281.436,90.819 279.314,89.923 277.456 C 89.394 276.359,88.512 274.800,87.963 273.990 C 87.414 273.181,86.674 271.519,86.319 270.298 C 85.964 269.076,85.228 267.198,84.683 266.124 C 84.139 265.050,83.355 262.476,82.940 260.404 C 82.526 258.332,81.845 255.643,81.427 254.429 C 79.911 250.021,79.843 247.242,79.847 189.981 C 79.851 132.201,79.982 126.744,81.454 122.959 C 81.886 121.851,82.659 118.793,83.173 116.163 C 83.816 112.875,84.419 110.911,85.103 109.870 C 85.650 109.039,86.288 107.499,86.521 106.450 C 87.001 104.284,87.774 102.630,88.645 101.908 C 88.972 101.636,89.537 100.519,89.900 99.425 C 90.264 98.330,91.135 96.795,91.836 96.013 C 92.538 95.232,93.476 93.872,93.921 92.993 C 94.366 92.114,95.274 90.812,95.939 90.100 C 96.604 89.388,97.150 88.603,97.151 88.356 C 97.157 87.251,110.873 74.566,113.498 73.237 C 114.379 72.791,115.839 71.808,116.744 71.051 C 117.649 70.295,119.053 69.464,119.864 69.205 C 120.674 68.945,121.691 68.422,122.124 68.041 C 123.226 67.071,124.969 66.239,127.040 65.692 C 128.014 65.436,129.575 64.783,130.509 64.242 C 131.490 63.674,134.064 62.873,136.605 62.346 C 139.024 61.843,141.711 61.151,142.576 60.807 C 146.274 59.338,148.057 59.292,207.473 59.117 C 268.179 58.938,271.051 59.000,275.710 60.590 C 276.901 60.996,279.292 61.615,281.023 61.963 C 282.753 62.312,285.231 63.041,286.529 63.584 C 287.827 64.126,290.015 64.995,291.391 65.514 C 292.767 66.034,294.536 66.860,295.322 67.350 C 296.108 67.839,297.455 68.559,298.315 68.948 C 299.176 69.337,300.496 70.134,301.249 70.718 C 302.003 71.302,303.364 72.222,304.275 72.763 C 310.208 76.287,320.013 86.122,323.684 92.232 C 324.204 93.097,325.058 94.328,325.581 94.967 C 326.105 95.605,327.021 97.110,327.617 98.310 C 328.212 99.510,329.153 101.288,329.706 102.262 C 330.259 103.235,330.920 104.828,331.174 105.801 C 331.428 106.775,331.996 108.160,332.436 108.879 C 332.877 109.598,333.484 110.925,333.785 111.829 C 334.305 113.386,334.323 113.400,334.125 112.094 C 334.011 111.337,333.457 109.833,332.895 108.751 C 332.333 107.670,331.607 105.902,331.282 104.824 C 330.957 103.746,330.003 101.722,329.161 100.326 C 328.319 98.930,327.630 97.616,327.630 97.406 C 327.630 97.195,326.949 96.121,326.117 95.019 C 325.284 93.916,324.286 92.396,323.898 91.640 C 321.769 87.489,311.394 76.697,306.358 73.394 C 305.403 72.768,303.648 71.602,302.458 70.803 C 297.115 67.217,287.894 63.025,282.203 61.594 C 280.039 61.050,276.942 60.201,275.320 59.707 L 272.370 58.810 210.619 58.752 C 176.657 58.721,147.621 58.843,146.096 59.025 M183.868 116.570 C 178.674 117.420,174.928 119.285,171.356 122.800 C 170.745 123.401,170.088 123.894,169.898 123.894 C 169.707 123.894,169.093 124.675,168.534 125.630 C 167.974 126.585,167.273 127.568,166.976 127.815 C 166.679 128.061,165.793 129.923,165.007 131.953 C 163.274 136.424,161.111 139.289,158.451 140.637 C 154.633 142.572,150.163 147.368,148.031 151.819 C 147.461 153.009,146.476 154.533,145.842 155.207 C 144.788 156.326,144.658 156.784,144.327 160.517 C 144.128 162.764,143.893 165.044,143.805 165.585 C 143.717 166.126,143.772 169.046,143.928 172.075 C 144.230 177.935,143.830 180.673,142.511 181.762 C 142.153 182.058,141.434 183.274,140.914 184.464 C 140.394 185.654,139.626 187.347,139.207 188.228 C 136.979 192.910,136.673 208.084,138.746 211.116 C 139.298 211.925,140.168 213.644,140.678 214.937 C 141.764 217.691,144.112 221.226,146.692 223.992 C 149.884 227.414,150.483 228.674,150.753 232.537 C 150.932 235.097,151.248 236.471,151.996 237.945 C 152.548 239.032,153.464 240.851,154.033 241.986 C 156.688 247.290,160.466 251.309,164.887 253.535 C 166.461 254.327,168.417 255.547,169.234 256.246 C 170.396 257.240,171.423 257.657,173.953 258.159 C 178.819 259.125,179.332 258.868,174.689 257.790 C 171.526 257.056,170.315 256.579,169.262 255.655 C 168.517 255.000,166.685 253.849,165.192 253.097 C 157.923 249.437,151.032 238.338,151.032 230.290 C 151.032 228.422,149.625 225.969,147.306 223.795 C 145.261 221.878,142.119 217.142,141.108 214.449 C 140.641 213.208,139.817 211.599,139.275 210.874 C 135.935 206.398,138.430 187.230,143.002 182.238 C 144.679 180.407,144.845 179.262,144.677 170.661 C 144.509 162.092,145.127 157.377,146.683 155.359 C 147.267 154.602,148.125 153.234,148.591 152.319 C 150.795 147.991,155.057 143.421,158.899 141.268 C 161.842 139.618,163.754 137.187,165.518 132.852 C 171.314 118.610,186.493 112.806,200.197 119.592 C 202.035 120.503,203.894 121.562,204.326 121.945 C 207.433 124.695,209.302 124.681,212.689 121.882 C 225.117 111.612,245.755 117.641,252.175 133.418 C 253.517 136.717,254.060 137.373,257.817 140.242 C 265.301 145.957,272.362 156.876,272.680 163.225 L 272.808 165.782 272.884 163.093 C 272.966 160.182,270.054 153.274,266.722 148.476 C 265.348 146.497,258.155 139.233,257.569 139.233 C 256.483 139.233,254.204 136.347,252.656 133.012 C 249.920 127.117,243.049 119.845,238.545 118.077 C 229.931 114.695,218.801 116.161,211.895 121.586 C 209.199 123.704,208.699 123.777,206.556 122.363 C 205.546 121.697,203.634 120.635,202.308 120.003 C 200.981 119.372,199.779 118.666,199.636 118.435 C 198.625 116.799,189.248 115.690,183.868 116.570 M335.127 117.797 C 335.120 118.014,335.560 119.518,336.106 121.141 C 336.652 122.763,337.003 123.471,336.887 122.714 C 336.674 121.323,335.151 117.069,335.127 117.797 M337.161 125.467 C 337.161 126.224,337.242 126.534,337.341 126.155 C 337.440 125.777,337.440 125.157,337.341 124.779 C 337.242 124.400,337.161 124.710,337.161 125.467 M337.589 129.794 C 337.589 131.200,337.660 131.775,337.748 131.072 C 337.835 130.369,337.835 129.218,337.748 128.515 C 337.660 127.812,337.589 128.387,337.589 129.794 M185.227 130.330 C 182.082 131.178,180.830 132.151,179.548 134.742 C 178.899 136.053,177.949 137.701,177.437 138.403 C 176.149 140.169,176.309 146.216,177.694 148.162 C 178.668 149.530,178.843 151.913,178.067 153.238 C 176.806 155.389,175.274 157.568,174.710 158.014 C 173.374 159.069,167.945 158.157,167.945 156.877 C 167.945 156.723,166.998 156.085,165.840 155.458 L 163.735 154.318 162.832 155.723 C 162.335 156.496,161.227 157.771,160.369 158.555 C 157.064 161.576,156.314 169.593,159.141 171.681 C 162.406 174.094,163.029 175.478,162.580 179.319 C 162.339 181.386,162.198 181.591,157.894 186.127 C 153.271 191.000,152.244 192.616,151.421 196.314 C 148.987 207.255,156.721 218.276,168.338 220.419 C 172.999 221.279,175.418 223.373,175.418 226.548 C 175.418 229.769,174.413 230.951,169.604 233.388 C 168.483 233.956,167.259 234.890,166.883 235.462 L 166.201 236.504 170.318 240.349 C 174.824 244.558,176.377 245.303,181.522 245.722 C 188.781 246.312,197.532 240.763,200.694 233.564 L 201.962 230.678 202.079 214.416 C 202.164 202.583,202.073 198.005,201.744 197.609 C 200.335 195.912,196.955 196.372,193.216 198.771 C 190.779 200.335,188.076 200.448,186.170 199.067 C 181.408 195.618,182.936 190.013,189.564 186.608 C 193.817 184.423,199.051 178.763,200.190 175.116 C 200.578 173.876,201.180 172.203,201.529 171.399 C 202.076 170.139,202.163 167.872,202.163 154.979 L 202.163 140.022 200.963 137.481 C 198.353 131.957,191.218 128.715,185.227 130.330 M223.829 130.416 C 220.363 131.504,219.216 132.693,216.462 138.053 L 214.946 141.003 214.946 154.376 C 214.946 168.792,215.147 170.623,217.299 175.835 C 219.058 180.094,224.085 185.243,228.000 186.796 C 229.424 187.360,233.628 191.583,233.628 192.449 C 233.628 192.762,233.728 193.528,233.851 194.149 C 234.146 195.651,232.145 198.698,230.282 199.582 C 227.998 200.666,224.832 200.024,220.916 197.683 C 219.183 196.647,218.890 196.588,217.521 196.998 C 214.844 197.800,214.946 197.124,214.947 214.121 L 214.948 229.499 216.624 233.168 C 222.095 245.150,233.197 249.140,243.741 242.914 C 246.564 241.247,250.934 237.275,250.934 236.376 C 250.934 235.369,250.191 234.643,248.060 233.567 C 243.295 231.162,242.333 230.241,241.757 227.532 C 241.665 227.099,241.643 227.453,241.708 228.319 C 241.850 230.208,243.082 231.397,247.168 233.587 C 250.994 235.638,251.057 235.836,248.743 238.516 C 246.939 240.606,245.352 241.704,240.513 244.212 C 238.024 245.502,232.085 245.666,228.462 244.545 C 223.734 243.081,219.440 238.593,216.890 232.448 L 215.339 228.712 215.339 214.946 C 215.339 198.797,215.363 198.605,217.515 197.635 L 219.086 196.926 221.187 198.374 C 227.676 202.843,235.315 199.633,234.068 192.961 C 233.647 190.704,230.884 187.574,228.264 186.385 C 227.369 185.979,225.780 184.938,224.732 184.072 C 223.684 183.206,222.703 182.498,222.553 182.498 C 222.011 182.498,218.708 177.785,217.951 175.933 C 215.845 170.776,215.486 167.373,215.614 153.722 L 215.733 141.003 217.261 137.879 C 220.788 130.673,226.109 128.731,233.083 132.103 C 239.582 135.246,242.226 140.590,239.725 145.526 C 239.184 146.593,238.741 147.901,238.741 148.433 C 238.741 148.964,238.537 150.284,238.288 151.365 C 237.163 156.236,244.835 160.691,248.192 157.117 C 248.707 156.569,250.082 155.844,251.247 155.505 L 253.367 154.889 254.458 155.933 C 255.804 157.223,258.618 162.818,259.178 165.320 C 259.899 168.536,259.382 170.225,256.991 172.468 C 252.114 177.044,253.182 182.599,259.828 187.228 C 263.204 189.579,266.052 196.803,265.794 202.360 C 265.694 204.523,265.740 205.762,265.896 205.113 C 267.457 198.631,264.583 190.759,258.811 185.706 C 253.319 180.898,252.934 176.976,257.547 172.805 L 259.784 170.783 259.762 167.496 C 259.738 163.727,257.329 157.936,254.745 155.431 L 253.448 154.174 251.503 154.814 C 250.433 155.166,248.876 155.986,248.043 156.636 C 245.667 158.493,240.254 157.201,238.767 154.423 C 238.185 153.335,238.995 148.856,240.409 145.344 C 243.760 137.023,233.167 127.486,223.829 130.416 M192.996 131.539 C 197.130 133.463,199.197 135.255,200.511 138.053 L 201.526 140.216 201.683 153.596 C 201.851 168.005,201.769 168.910,199.815 174.210 C 198.097 178.873,193.726 183.791,189.144 186.217 C 180.830 190.619,180.913 200.624,189.263 200.581 C 190.862 200.573,191.624 200.278,195.870 198.023 C 197.961 196.912,198.668 196.850,200.199 197.641 C 201.800 198.469,201.830 198.821,201.693 215.339 L 201.573 229.892 200.300 233.038 C 198.816 236.707,195.593 240.477,192.724 241.900 C 191.750 242.382,190.485 243.107,189.913 243.510 C 184.789 247.119,176.850 245.721,170.900 240.162 C 166.934 236.457,166.637 235.929,168.043 235.077 C 168.530 234.782,170.218 233.780,171.795 232.850 C 175.622 230.594,176.887 227.813,175.554 224.587 C 174.360 221.700,173.034 220.815,168.775 220.067 C 156.030 217.826,147.798 203.775,153.101 193.314 C 154.127 191.289,156.082 188.892,159.336 185.666 C 164.500 180.547,164.996 175.320,160.624 172.090 C 156.958 169.383,157.380 162.857,161.509 158.385 C 162.669 157.128,163.618 155.930,163.618 155.722 C 163.618 155.292,166.002 156.438,168.174 157.912 C 170.620 159.572,174.244 159.359,175.696 157.470 C 176.300 156.685,177.306 155.438,177.931 154.700 C 179.431 152.932,179.619 149.526,178.320 147.689 C 177.139 146.020,176.619 140.031,177.586 139.229 C 177.945 138.931,178.915 137.350,179.742 135.715 C 182.115 131.024,187.944 129.187,192.996 131.539 M273.086 168.338 C 273.086 169.744,273.157 170.320,273.244 169.617 C 273.331 168.913,273.331 167.763,273.244 167.060 C 273.157 166.357,273.086 166.932,273.086 168.338 M272.426 172.960 C 271.783 176.849,272.433 180.887,274.072 183.189 C 274.520 183.818,275.260 185.291,275.717 186.463 C 276.175 187.635,276.976 189.216,277.498 189.977 C 278.019 190.738,278.622 192.331,278.836 193.517 L 279.227 195.674 279.054 193.548 C 278.941 192.151,278.550 190.937,277.914 190.008 C 277.382 189.230,276.588 187.642,276.151 186.478 C 275.714 185.314,274.911 183.689,274.367 182.867 C 272.918 180.678,272.417 178.199,272.695 174.596 C 272.951 171.283,272.827 170.531,272.426 172.960 M279.375 198.033 C 279.377 199.331,279.450 199.815,279.538 199.108 C 279.625 198.401,279.623 197.339,279.534 196.748 C 279.444 196.157,279.372 196.735,279.375 198.033 M264.912 207.601 C 264.569 209.160,261.774 212.757,259.072 215.115 C 257.816 216.212,256.943 217.109,257.133 217.109 C 258.480 217.109,264.945 209.688,265.347 207.681 C 265.648 206.176,265.241 206.101,264.912 207.601 M278.312 208.685 C 278.180 209.027,278.073 209.918,278.073 210.665 C 278.073 211.413,277.776 212.504,277.414 213.092 L 276.756 214.159 277.569 213.373 C 278.149 212.812,278.433 211.937,278.555 210.324 C 278.737 207.937,278.698 207.677,278.312 208.685 M253.778 218.266 C 252.638 218.894,251.222 219.600,250.632 219.834 L 249.558 220.260 250.651 220.051 C 251.767 219.837,256.960 217.116,256.244 217.121 C 256.028 217.122,254.918 217.638,253.778 218.266 M275.254 217.862 C 275.182 218.059,273.558 219.849,271.645 221.838 C 267.372 226.283,265.862 228.560,265.929 230.460 L 265.978 231.858 266.246 230.224 C 266.596 228.083,267.823 226.348,272.146 221.877 C 274.108 219.849,275.713 218.034,275.713 217.846 C 275.713 217.395,275.421 217.405,275.254 217.862 M244.428 221.382 C 243.175 222.145,242.130 223.501,241.485 225.197 C 241.233 225.860,241.237 226.118,241.496 225.958 C 241.711 225.825,241.888 225.467,241.888 225.163 C 241.888 224.322,244.277 221.781,245.617 221.197 C 246.270 220.913,246.539 220.673,246.214 220.666 C 245.890 220.658,245.086 220.980,244.428 221.382 M265.487 233.212 C 265.487 233.633,264.880 235.976,264.139 238.420 C 263.398 240.865,262.854 242.926,262.930 243.002 C 263.139 243.211,265.437 235.850,265.726 234.041 C 265.866 233.165,265.869 232.448,265.734 232.448 C 265.598 232.448,265.487 232.792,265.487 233.212 M258.210 248.001 C 255.831 250.437,254.191 252.266,254.566 252.065 C 255.941 251.329,263.926 242.884,262.649 243.517 C 262.587 243.547,260.590 245.565,258.210 248.001 M207.433 248.368 C 206.772 248.645,205.626 249.396,204.886 250.036 C 202.539 252.064,198.445 254.679,196.435 255.432 C 194.540 256.143,190.999 258.407,191.783 258.407 C 192.000 258.407,192.778 257.964,193.511 257.423 C 194.245 256.882,195.775 256.091,196.913 255.665 C 198.948 254.904,201.904 253.015,204.436 250.858 C 205.145 250.253,206.406 249.412,207.238 248.987 L 208.750 248.216 210.471 249.328 C 211.418 249.940,212.889 251.168,213.740 252.057 C 214.747 253.108,215.983 253.896,217.280 254.313 C 218.376 254.666,219.961 255.494,220.803 256.154 C 222.253 257.291,227.554 258.805,229.892 258.751 C 230.324 258.741,228.870 258.331,226.659 257.839 C 223.816 257.207,222.219 256.625,221.204 255.851 C 220.415 255.249,218.861 254.415,217.751 253.998 C 216.561 253.551,214.926 252.460,213.766 251.341 C 210.969 248.640,208.993 247.712,207.433 248.368 M251.841 253.519 L 250.737 254.531 252.016 253.642 C 252.719 253.153,253.294 252.698,253.294 252.630 C 253.294 252.320,252.859 252.586,251.841 253.519 M245.211 256.809 C 245.006 257.012,244.307 257.453,243.658 257.790 C 242.934 258.165,242.736 258.403,243.144 258.405 C 243.732 258.407,246.349 256.484,245.801 256.453 C 245.682 256.446,245.417 256.606,245.211 256.809 M185.559 258.698 C 186.702 258.777,188.472 258.776,189.492 258.696 C 190.512 258.615,189.577 258.550,187.414 258.551 C 185.251 258.552,184.416 258.618,185.559 258.698 M239.434 258.685 C 239.924 258.779,240.631 258.776,241.008 258.677 C 241.384 258.579,240.983 258.502,240.118 258.506 C 239.253 258.511,238.945 258.591,239.434 258.685 M180.046 259.085 C 180.753 259.173,181.815 259.171,182.406 259.081 C 182.997 258.992,182.419 258.920,181.121 258.922 C 179.823 258.924,179.339 258.998,180.046 259.085 M233.147 259.089 C 234.072 259.172,235.488 259.171,236.294 259.086 C 237.099 259.002,236.342 258.934,234.612 258.935 C 232.881 258.937,232.222 259.006,233.147 259.089 M318.762 290.757 L 317.207 292.429 318.879 290.874 C 320.434 289.428,320.731 289.086,320.434 289.086 C 320.370 289.086,319.617 289.838,318.762 290.757 M310.896 298.623 L 309.341 300.295 311.013 298.740 C 312.567 297.294,312.865 296.952,312.568 296.952 C 312.503 296.952,311.751 297.704,310.896 298.623 M138.840 315.096 C 143.188 316.426,145.674 317.000,146.903 316.959 C 147.642 316.934,147.282 316.786,145.937 316.563 C 144.757 316.368,142.403 315.769,140.705 315.233 C 139.008 314.696,137.319 314.270,136.951 314.286 C 136.584 314.301,137.434 314.666,138.840 315.096 M151.721 317.302 C 153.073 317.379,155.285 317.379,156.637 317.302 C 157.989 317.225,156.883 317.162,154.179 317.162 C 151.475 317.162,150.369 317.225,151.721 317.302 M266.573 317.289 C 267.062 317.383,267.770 317.379,268.146 317.281 C 268.522 317.183,268.122 317.106,267.257 317.110 C 266.391 317.114,266.084 317.195,266.573 317.289 " stroke="none" fill="#a7a6e0" fill-rule="evenodd"/><path id="path3" d="M153.196 59.269 C 148.897 59.453,144.132 60.142,142.532 60.811 C 141.730 61.146,139.078 61.834,136.640 62.340 C 134.067 62.873,131.495 63.671,130.509 64.242 C 129.575 64.783,128.014 65.436,127.040 65.692 C 124.969 66.239,123.226 67.071,122.124 68.041 C 121.691 68.422,120.674 68.945,119.864 69.205 C 119.053 69.464,117.649 70.295,116.744 71.051 C 115.839 71.808,114.379 72.791,113.498 73.237 C 110.873 74.566,97.157 87.251,97.151 88.356 C 97.150 88.603,96.604 89.388,95.939 90.100 C 95.274 90.812,94.366 92.114,93.921 92.993 C 93.476 93.872,92.538 95.232,91.836 96.013 C 91.135 96.795,90.264 98.330,89.900 99.425 C 89.537 100.519,88.972 101.636,88.645 101.908 C 87.774 102.630,87.001 104.284,86.521 106.450 C 86.288 107.499,85.650 109.039,85.103 109.870 C 84.419 110.911,83.816 112.875,83.173 116.163 C 82.659 118.793,81.886 121.851,81.454 122.959 C 79.982 126.744,79.851 132.201,79.847 189.981 C 79.843 247.242,79.911 250.021,81.427 254.429 C 81.845 255.643,82.526 258.332,82.940 260.404 C 83.355 262.476,84.139 265.050,84.683 266.124 C 85.228 267.198,85.964 269.076,86.319 270.298 C 86.674 271.519,87.414 273.181,87.963 273.990 C 88.512 274.800,89.394 276.359,89.923 277.456 C 90.819 279.314,92.184 281.436,95.859 286.687 C 97.752 289.392,106.268 298.236,108.427 299.739 C 109.330 300.368,110.328 301.141,110.645 301.458 C 110.961 301.775,112.092 302.548,113.157 303.176 C 114.222 303.804,115.937 304.961,116.967 305.748 C 117.998 306.534,119.045 307.178,119.295 307.178 C 119.544 307.178,120.766 307.806,122.009 308.573 C 123.252 309.340,125.202 310.245,126.343 310.583 C 127.484 310.920,129.139 311.619,130.022 312.136 C 130.905 312.652,133.560 313.504,135.922 314.028 C 138.284 314.552,140.747 315.190,141.396 315.445 C 145.600 317.099,145.798 317.105,205.685 317.291 C 265.958 317.478,271.188 317.366,275.741 315.790 C 277.014 315.350,279.930 314.565,282.223 314.047 C 284.515 313.529,286.981 312.741,287.701 312.296 C 288.422 311.851,290.058 311.142,291.338 310.722 C 292.618 310.302,294.703 309.333,295.973 308.568 C 297.243 307.804,298.430 307.178,298.611 307.178 C 298.948 307.178,303.542 304.160,307.753 301.172 C 309.043 300.257,312.317 297.279,315.030 294.555 C 319.518 290.047,321.007 288.211,325.052 282.203 C 326.953 279.379,330.565 272.635,331.162 270.793 C 331.442 269.930,332.158 268.250,332.752 267.060 C 333.347 265.870,334.129 263.392,334.490 261.554 C 334.852 259.715,335.580 256.971,336.108 255.457 C 337.784 250.656,337.850 248.192,337.853 189.929 C 337.857 130.910,337.743 126.472,336.094 121.221 C 335.571 119.555,334.782 116.529,334.342 114.498 C 333.901 112.468,333.115 110.078,332.594 109.189 C 332.073 108.299,331.436 106.775,331.179 105.801 C 330.922 104.828,330.259 103.235,329.706 102.262 C 329.153 101.288,328.212 99.510,327.617 98.310 C 327.021 97.110,326.105 95.605,325.581 94.967 C 325.058 94.328,324.204 93.097,323.684 92.232 C 320.013 86.122,310.208 76.287,304.275 72.763 C 303.364 72.222,302.003 71.302,301.249 70.718 C 300.496 70.134,299.176 69.337,298.315 68.948 C 297.455 68.559,296.108 67.839,295.322 67.350 C 294.536 66.860,292.767 66.034,291.391 65.514 C 290.015 64.995,287.827 64.126,286.529 63.584 C 285.231 63.041,282.753 62.312,281.023 61.963 C 279.292 61.615,276.903 60.999,275.713 60.595 C 271.205 59.065,268.315 58.997,211.209 59.075 C 180.816 59.117,154.710 59.204,153.196 59.269 M271.190 60.812 C 273.041 61.791,275.506 62.385,279.859 62.904 C 283.303 63.314,284.437 63.686,285.939 64.895 C 286.480 65.330,288.121 65.936,289.586 66.242 C 291.476 66.636,292.646 67.146,293.611 67.993 C 294.360 68.650,295.727 69.402,296.650 69.663 C 297.573 69.925,298.948 70.711,299.705 71.409 C 300.462 72.108,301.802 73.040,302.682 73.480 C 303.563 73.920,305.039 74.912,305.964 75.685 C 306.889 76.457,307.890 77.089,308.188 77.089 C 308.487 77.089,308.992 77.594,309.311 78.211 C 309.630 78.828,310.342 79.628,310.894 79.990 C 312.097 80.778,317.011 85.689,317.011 86.104 C 317.011 86.265,317.469 86.641,318.030 86.941 C 318.590 87.241,319.410 88.200,319.853 89.073 C 320.295 89.945,321.074 91.080,321.585 91.596 C 322.096 92.111,322.908 93.322,323.390 94.286 C 323.871 95.250,324.743 96.380,325.328 96.796 C 325.925 97.222,326.510 98.109,326.664 98.825 C 327.032 100.535,327.827 102.030,328.983 103.185 C 329.508 103.710,330.055 104.824,330.198 105.659 C 330.720 108.707,331.210 110.115,332.133 111.211 C 332.894 112.117,333.223 113.321,333.851 117.510 C 334.302 120.515,334.976 123.408,335.455 124.398 C 335.991 125.505,336.426 127.553,336.691 130.212 C 337.284 136.153,336.998 247.881,336.385 249.754 C 336.138 250.511,335.593 252.109,335.175 253.305 C 334.757 254.501,334.294 256.448,334.146 257.632 C 333.652 261.598,333.017 264.104,332.301 264.908 C 331.474 265.836,330.383 268.733,330.383 270.001 C 330.383 270.483,329.948 271.478,329.416 272.213 C 328.031 274.126,326.844 276.369,326.844 277.073 C 326.844 277.405,326.256 278.341,325.538 279.153 C 324.821 279.965,323.808 281.337,323.289 282.203 C 321.006 286.008,319.288 288.082,314.001 293.412 C 309.284 298.168,307.644 299.705,307.288 299.705 C 307.093 299.705,306.562 300.050,306.109 300.473 C 305.656 300.895,304.339 301.812,303.183 302.511 C 302.027 303.210,300.417 304.369,299.606 305.087 C 298.794 305.804,297.857 306.391,297.525 306.391 C 296.822 306.391,294.579 307.579,292.666 308.964 C 291.930 309.496,290.869 309.933,290.306 309.935 C 289.194 309.939,285.401 311.570,285.003 312.215 C 284.867 312.434,283.474 312.821,281.906 313.074 C 276.926 313.879,273.584 314.644,272.432 315.242 C 268.574 317.244,149.020 317.303,145.836 315.304 C 144.414 314.411,142.502 313.924,137.902 313.284 C 134.408 312.798,133.296 312.473,131.851 311.516 C 130.873 310.868,129.033 310.137,127.742 309.883 C 126.109 309.562,124.930 309.027,123.833 308.110 C 122.969 307.388,121.375 306.534,120.292 306.213 C 119.146 305.872,117.991 305.207,117.531 304.622 C 117.096 304.069,116.023 303.250,115.146 302.803 C 114.270 302.356,113.092 301.553,112.529 301.019 C 111.965 300.484,110.973 299.767,110.324 299.425 C 109.676 299.084,108.409 298.077,107.509 297.190 C 106.610 296.302,105.574 295.284,105.206 294.929 C 104.534 294.278,102.594 292.316,101.738 291.422 C 101.485 291.157,100.553 290.214,99.667 289.325 C 98.781 288.436,97.830 287.282,97.554 286.759 C 97.278 286.237,96.277 284.757,95.330 283.471 C 94.383 282.185,93.609 280.900,93.609 280.615 C 93.609 280.330,93.025 279.597,92.312 278.986 C 91.428 278.229,90.798 277.163,90.331 275.631 C 89.914 274.264,89.254 273.079,88.644 272.599 C 87.880 271.998,87.504 271.132,87.057 268.944 C 86.735 267.367,86.218 265.723,85.908 265.290 C 85.598 264.857,85.078 264.135,84.754 263.684 C 84.430 263.234,83.896 260.813,83.567 258.305 C 82.994 253.936,82.624 252.402,81.242 248.649 C 80.679 247.123,80.627 241.042,80.721 187.882 L 80.826 128.810 81.896 126.647 C 82.927 124.563,83.455 121.952,83.981 116.339 C 84.177 114.242,84.463 113.406,85.373 112.261 C 86.650 110.654,87.310 108.695,87.313 106.505 C 87.315 105.646,87.574 104.837,87.943 104.539 C 89.886 102.967,90.461 102.064,90.709 100.198 C 90.931 98.524,91.159 98.123,92.258 97.475 C 92.966 97.057,93.722 96.208,93.938 95.589 C 94.154 94.970,95.116 93.499,96.077 92.320 C 97.037 91.141,97.942 89.703,98.087 89.125 C 98.240 88.512,98.760 87.919,99.332 87.701 C 99.872 87.496,100.685 86.699,101.139 85.931 C 101.592 85.162,102.480 84.266,103.113 83.939 C 103.745 83.612,104.460 82.912,104.701 82.382 C 104.942 81.853,105.732 81.070,106.457 80.643 C 107.181 80.215,107.981 79.412,108.233 78.859 C 108.494 78.287,109.392 77.542,110.315 77.134 C 111.207 76.739,112.548 75.884,113.294 75.233 C 114.040 74.582,115.368 73.685,116.245 73.241 C 117.122 72.796,118.047 71.976,118.301 71.418 C 118.556 70.860,119.090 70.403,119.489 70.403 C 121.099 70.403,123.961 69.113,124.377 68.200 C 124.846 67.171,124.986 67.112,128.573 66.430 C 130.326 66.097,131.479 65.609,132.378 64.819 C 133.527 63.811,134.175 63.625,138.319 63.116 C 144.269 62.385,145.000 62.223,146.903 61.211 C 149.354 59.907,149.427 59.905,211.209 59.944 L 269.617 59.980 271.190 60.812 M186.037 114.891 C 185.280 115.087,183.097 115.514,181.186 115.841 C 177.322 116.501,176.033 117.042,174.732 118.547 C 174.247 119.108,173.602 119.567,173.299 119.567 C 172.536 119.567,168.029 123.796,167.705 124.816 C 167.560 125.273,166.956 126.101,166.362 126.656 C 165.726 127.250,164.993 128.624,164.574 130.007 C 164.184 131.296,163.552 132.706,163.170 133.142 C 162.788 133.578,162.204 134.585,161.872 135.380 C 161.540 136.175,160.602 137.324,159.788 137.931 C 158.975 138.539,158.245 139.184,158.167 139.364 C 158.089 139.544,157.259 140.020,156.324 140.421 C 155.388 140.822,154.320 141.613,153.949 142.178 C 153.579 142.744,152.809 143.448,152.238 143.743 C 151.668 144.038,150.942 144.779,150.625 145.391 C 150.308 146.002,149.580 146.903,149.006 147.393 C 148.433 147.883,147.640 149.184,147.244 150.283 C 146.849 151.382,145.950 152.954,145.246 153.776 C 143.574 155.730,143.166 156.888,143.166 159.685 C 143.166 160.955,142.976 162.492,142.743 163.101 C 142.177 164.586,142.159 168.026,142.691 173.219 C 143.095 177.161,143.073 177.592,142.412 178.528 C 141.468 179.866,140.020 183.080,140.020 183.839 C 140.020 184.168,139.486 185.045,138.834 185.788 C 135.561 189.515,135.723 211.243,139.046 214.365 C 139.582 214.868,140.020 215.657,140.020 216.117 C 140.020 217.235,141.877 220.916,142.576 221.184 C 142.881 221.301,143.500 222.121,143.951 223.005 C 144.402 223.890,145.217 224.817,145.762 225.065 C 147.094 225.672,148.536 228.906,148.790 231.858 C 149.013 234.439,151.431 241.211,152.583 242.478 C 152.976 242.911,153.649 244.073,154.078 245.060 C 155.681 248.754,162.256 254.742,165.782 255.719 C 166.713 255.978,167.855 256.717,168.580 257.532 C 171.348 260.641,190.960 260.986,195.297 258.002 C 196.317 257.301,197.920 256.495,198.858 256.213 C 200.393 255.751,203.750 253.541,207.134 250.766 C 208.784 249.413,208.615 249.349,212.265 252.707 C 215.000 255.224,215.736 255.696,217.247 255.904 C 218.567 256.084,219.411 256.522,220.547 257.613 L 222.073 259.079 227.827 259.579 C 237.046 260.378,243.735 259.879,246.222 258.205 C 247.283 257.491,249.049 256.609,250.145 256.245 C 251.241 255.881,252.620 255.193,253.208 254.716 C 253.796 254.240,254.808 253.518,255.457 253.112 C 262.077 248.969,265.438 243.305,267.280 233.187 C 267.650 231.158,268.282 229.029,268.686 228.455 C 269.090 227.880,269.420 227.217,269.420 226.980 C 269.420 226.743,270.998 224.981,272.926 223.063 C 276.319 219.689,277.277 218.104,277.284 215.845 C 277.285 215.474,277.638 214.982,278.069 214.751 C 280.014 213.710,280.202 212.545,280.219 201.377 C 280.237 190.422,280.110 189.531,278.318 188.044 C 277.991 187.773,277.337 186.388,276.863 184.966 C 276.390 183.544,275.589 181.770,275.082 181.023 C 273.785 179.112,273.591 177.553,273.999 172.325 C 274.714 163.159,273.767 156.804,271.238 153.796 C 270.960 153.466,270.415 152.311,270.026 151.229 C 269.637 150.147,268.789 148.702,268.143 148.016 C 267.497 147.331,266.762 146.358,266.511 145.854 C 266.260 145.350,265.504 144.583,264.832 144.150 C 264.159 143.717,263.313 142.832,262.951 142.183 C 262.281 140.983,260.236 139.298,257.667 137.830 C 256.885 137.383,256.048 136.587,255.808 136.060 C 255.568 135.534,255.004 134.395,254.555 133.530 C 252.111 128.818,251.141 127.154,250.390 126.382 C 249.932 125.912,249.146 124.983,248.643 124.317 C 248.139 123.652,247.493 123.107,247.207 123.107 C 246.920 123.107,246.326 122.499,245.888 121.755 C 245.449 121.011,244.502 120.100,243.784 119.730 C 243.066 119.360,242.234 118.711,241.935 118.287 C 239.029 114.169,217.451 114.237,213.766 118.376 C 213.333 118.862,212.130 119.690,211.093 120.216 C 210.055 120.742,209.103 121.442,208.976 121.771 C 208.788 122.263,208.564 122.195,207.717 121.392 C 207.150 120.854,205.908 120.106,204.956 119.728 C 204.004 119.350,202.368 118.465,201.320 117.760 C 200.227 117.024,198.451 116.285,197.151 116.024 C 195.906 115.775,194.014 115.320,192.947 115.013 C 190.800 114.394,188.139 114.347,186.037 114.891 M196.817 117.225 C 198.225 117.660,199.494 118.204,199.636 118.435 C 199.779 118.666,200.981 119.372,202.308 120.003 C 203.634 120.635,205.546 121.697,206.556 122.363 C 208.699 123.777,209.199 123.704,211.895 121.586 C 218.801 116.161,229.931 114.695,238.545 118.077 C 243.049 119.845,249.920 127.117,252.656 133.012 C 254.204 136.347,256.483 139.233,257.569 139.233 C 259.608 139.233,267.303 148.837,270.496 155.367 L 272.904 160.291 273.029 165.593 C 273.098 168.509,272.997 172.428,272.805 174.302 C 272.403 178.227,272.823 180.534,274.367 182.867 C 274.911 183.689,275.714 185.314,276.151 186.478 C 276.588 187.642,277.371 189.215,277.891 189.975 C 279.597 192.468,280.355 203.987,279.056 207.670 C 278.732 208.589,278.466 210.089,278.466 211.001 C 278.466 212.160,278.229 212.875,277.681 213.372 C 277.249 213.762,276.591 215.047,276.219 216.226 C 275.662 217.995,274.900 219.036,271.876 222.165 C 267.345 226.852,266.431 228.347,266.068 231.662 C 264.871 242.605,257.832 252.023,248.082 255.728 C 246.975 256.148,245.575 256.909,244.970 257.417 C 241.754 260.124,224.732 259.233,220.801 256.153 C 219.960 255.494,218.376 254.666,217.280 254.313 C 215.983 253.896,214.747 253.108,213.740 252.057 C 212.889 251.168,211.418 249.940,210.471 249.328 L 208.750 248.216 207.238 248.987 C 206.406 249.412,205.145 250.253,204.436 250.858 C 201.944 252.981,198.983 254.883,196.993 255.639 C 195.888 256.059,194.279 256.891,193.419 257.487 C 190.783 259.314,181.648 259.620,173.953 258.139 C 171.401 257.648,170.405 257.249,169.234 256.246 C 168.417 255.547,166.461 254.327,164.887 253.535 C 160.466 251.309,156.688 247.290,154.033 241.986 C 153.464 240.851,152.548 239.032,151.996 237.945 C 151.248 236.471,150.932 235.097,150.753 232.537 C 150.483 228.674,149.884 227.414,146.692 223.992 C 144.112 221.226,141.764 217.691,140.678 214.937 C 140.168 213.644,139.298 211.925,138.746 211.116 C 136.673 208.084,136.979 192.910,139.207 188.228 C 139.626 187.347,140.394 185.654,140.914 184.464 C 141.434 183.274,142.153 182.058,142.511 181.762 C 143.830 180.673,144.230 177.935,143.928 172.075 C 143.772 169.046,143.717 166.126,143.805 165.585 C 143.893 165.044,144.128 162.764,144.327 160.517 C 144.658 156.784,144.788 156.326,145.842 155.207 C 146.476 154.533,147.461 153.009,148.031 151.819 C 150.163 147.368,154.633 142.572,158.451 140.637 C 161.111 139.289,163.274 136.424,165.007 131.953 C 165.793 129.923,166.679 128.061,166.976 127.815 C 167.273 127.568,167.974 126.585,168.534 125.630 C 169.093 124.675,169.707 123.894,169.898 123.894 C 170.088 123.894,170.745 123.401,171.356 122.800 C 177.467 116.787,187.960 114.489,196.817 117.225 M186.037 130.922 C 182.325 131.860,181.296 132.643,179.742 135.715 C 178.915 137.350,177.945 138.931,177.586 139.229 C 176.619 140.031,177.139 146.020,178.320 147.689 C 179.619 149.526,179.431 152.932,177.931 154.700 C 177.306 155.438,176.300 156.685,175.696 157.470 C 174.244 159.359,170.620 159.572,168.174 157.912 C 166.002 156.438,163.618 155.292,163.618 155.722 C 163.618 155.930,162.669 157.128,161.509 158.385 C 157.380 162.857,156.958 169.383,160.624 172.090 C 164.996 175.320,164.500 180.547,159.336 185.666 C 156.082 188.892,154.127 191.289,153.101 193.314 C 147.798 203.775,156.030 217.826,168.775 220.067 C 173.034 220.815,174.360 221.700,175.554 224.587 C 176.887 227.813,175.622 230.594,171.795 232.850 C 170.218 233.780,168.530 234.782,168.043 235.077 C 166.637 235.929,166.934 236.457,170.900 240.162 C 176.850 245.721,184.789 247.119,189.913 243.510 C 190.485 243.107,191.750 242.382,192.724 241.900 C 195.593 240.477,198.816 236.707,200.300 233.038 L 201.573 229.892 201.693 215.339 C 201.830 198.821,201.800 198.469,200.199 197.641 C 198.668 196.850,197.961 196.912,195.870 198.023 C 191.624 200.278,190.862 200.573,189.263 200.581 C 180.913 200.624,180.830 190.619,189.144 186.217 C 193.726 183.791,198.097 178.873,199.815 174.210 C 201.769 168.910,201.851 168.005,201.683 153.596 L 201.526 140.216 200.511 138.053 C 199.197 135.255,197.130 133.463,192.996 131.539 C 190.962 130.592,188.283 130.354,186.037 130.922 M223.607 131.115 C 221.388 131.731,219.050 134.223,217.261 137.879 L 215.733 141.003 215.614 153.722 C 215.486 167.373,215.845 170.776,217.951 175.933 C 218.708 177.785,222.011 182.498,222.553 182.498 C 222.703 182.498,223.684 183.206,224.732 184.072 C 225.780 184.938,227.369 185.979,228.264 186.385 C 230.884 187.574,233.647 190.704,234.068 192.961 C 235.315 199.633,227.676 202.843,221.187 198.374 L 219.086 196.926 217.515 197.635 C 215.363 198.605,215.339 198.797,215.339 214.946 L 215.339 228.712 216.890 232.448 C 219.440 238.593,223.734 243.081,228.462 244.545 C 232.085 245.666,238.024 245.502,240.513 244.212 C 245.352 241.704,246.939 240.606,248.743 238.516 C 251.041 235.855,250.976 235.629,247.366 233.704 C 242.393 231.051,241.560 230.073,241.434 226.743 C 241.304 223.313,243.685 221.010,248.097 220.300 C 254.730 219.231,262.995 212.969,264.962 207.522 C 267.222 201.263,264.494 190.478,259.828 187.228 C 253.182 182.599,252.114 177.044,256.991 172.468 C 259.382 170.225,259.899 168.536,259.178 165.320 C 258.618 162.818,255.804 157.223,254.458 155.933 L 253.367 154.889 251.247 155.505 C 250.082 155.844,248.707 156.569,248.192 157.117 C 244.835 160.691,237.163 156.236,238.288 151.365 C 238.537 150.284,238.741 148.964,238.741 148.433 C 238.741 147.901,239.184 146.593,239.725 145.526 C 243.690 137.701,233.308 128.418,223.607 131.115 M193.841 133.622 C 195.096 134.460,196.651 135.365,197.295 135.632 C 200.913 137.131,201.109 170.054,197.532 175.615 C 196.976 176.480,196.093 177.840,195.569 178.637 C 194.273 180.613,189.561 184.740,187.730 185.504 C 180.532 188.503,179.681 199.597,186.518 201.304 C 189.692 202.097,195.137 200.826,197.517 198.736 C 198.416 197.947,198.831 198.296,199.570 200.464 C 200.760 203.957,200.376 227.464,199.049 232.343 C 198.327 235.000,194.418 239.554,191.874 240.701 C 190.719 241.223,189.331 242.040,188.791 242.519 C 184.800 246.047,178.142 244.647,171.762 238.938 C 168.620 236.126,168.627 236.163,170.993 235.121 C 175.344 233.204,176.991 230.981,176.991 227.027 C 176.991 222.057,175.536 220.216,171.008 219.460 C 169.432 219.196,167.434 218.588,166.568 218.107 C 165.703 217.627,163.967 216.900,162.710 216.492 C 160.995 215.935,160.235 215.441,159.659 214.510 C 159.237 213.827,158.362 213.049,157.715 212.781 C 157.068 212.513,156.539 212.145,156.539 211.963 C 156.539 211.076,154.781 207.091,154.080 206.391 C 152.054 204.365,152.130 196.732,154.198 194.488 C 154.599 194.053,155.188 193.079,155.506 192.325 C 155.824 191.571,157.506 189.567,159.243 187.871 C 163.488 183.728,164.905 181.469,165.120 178.508 C 165.338 175.485,163.792 172.158,161.702 171.154 C 158.401 169.568,158.723 163.452,162.313 159.573 L 163.957 157.796 166.559 158.741 C 171.131 160.401,176.991 159.776,176.991 157.630 C 176.991 157.396,177.699 156.551,178.564 155.752 L 180.138 154.300 180.138 151.264 C 180.138 149.594,179.967 147.908,179.758 147.518 C 178.941 145.991,178.799 140.510,179.530 138.735 C 181.085 134.964,181.326 134.513,181.781 134.513 C 182.043 134.513,182.714 134.076,183.271 133.543 C 185.643 131.270,190.372 131.306,193.841 133.622 M231.465 132.736 C 233.265 133.838,235.079 134.750,236.104 135.069 C 236.493 135.190,237.085 135.955,237.420 136.769 C 237.756 137.584,238.382 138.631,238.811 139.096 C 240.211 140.613,240.216 142.923,238.823 144.510 C 237.886 145.577,237.571 146.377,237.386 148.159 C 237.255 149.415,237.063 151.244,236.959 152.223 C 236.364 157.844,245.065 162.075,249.042 158.099 C 249.863 157.277,250.768 156.832,251.944 156.671 L 253.652 156.437 254.672 158.749 C 255.232 160.021,256.124 161.689,256.653 162.456 C 258.742 165.482,258.333 170.315,255.873 171.692 C 251.101 174.364,251.364 182.662,256.335 186.278 C 258.705 188.001,261.023 190.542,261.912 192.389 C 262.365 193.330,263.094 194.655,263.531 195.333 C 265.615 198.564,265.029 205.197,262.286 209.419 C 261.451 210.706,260.767 211.883,260.767 212.035 C 260.767 212.187,260.146 212.678,259.387 213.126 C 258.628 213.574,257.821 214.349,257.594 214.848 C 257.289 215.516,256.499 215.951,254.605 216.493 C 253.189 216.899,251.562 217.622,250.990 218.099 C 250.342 218.641,248.914 219.147,247.198 219.444 C 242.000 220.341,240.767 221.539,240.406 226.038 C 240.050 230.469,241.813 232.957,246.903 235.210 C 247.822 235.617,248.574 236.061,248.574 236.198 C 248.574 237.080,245.518 239.940,243.568 240.883 C 242.319 241.486,240.944 242.296,240.511 242.683 C 238.206 244.743,230.760 244.727,227.729 242.655 C 227.188 242.285,225.816 241.400,224.680 240.689 C 223.544 239.977,222.271 238.850,221.851 238.183 C 221.431 237.517,220.547 236.215,219.888 235.290 C 217.045 231.306,215.580 204.981,217.915 199.835 L 218.704 198.096 219.971 199.317 C 222.477 201.730,230.169 202.216,232.898 200.134 C 235.929 197.821,236.065 191.035,233.130 188.534 C 232.584 188.068,231.986 187.421,231.801 187.095 C 231.616 186.769,230.447 186.054,229.204 185.505 C 227.960 184.956,226.942 184.342,226.942 184.140 C 226.942 183.938,225.989 183.117,224.823 182.314 C 223.314 181.275,222.125 179.956,220.690 177.730 C 218.581 174.458,218.646 174.688,217.471 166.346 C 216.093 156.568,217.483 138.573,219.794 136.262 C 220.345 135.711,221.175 134.706,221.640 134.028 C 223.233 131.703,228.619 130.994,231.465 132.736 " stroke="none" fill="#a49cda" fill-rule="evenodd"/><path id="path4" d="M142.398 57.876 C 140.131 58.112,138.253 58.594,136.498 59.389 C 135.082 60.030,132.619 60.818,131.026 61.141 C 129.432 61.463,127.220 62.237,126.109 62.860 C 124.999 63.483,123.169 64.296,122.042 64.668 C 120.915 65.039,119.356 65.775,118.577 66.303 C 117.799 66.832,116.420 67.636,115.513 68.090 C 114.606 68.545,113.422 69.310,112.881 69.791 C 112.340 70.272,111.220 71.051,110.391 71.523 C 105.442 74.340,93.880 86.376,92.048 90.618 C 91.664 91.506,90.967 92.575,90.499 92.994 C 89.724 93.688,88.102 96.786,88.102 97.574 C 88.102 97.753,87.677 98.325,87.157 98.845 C 86.636 99.365,85.908 100.833,85.538 102.108 C 84.685 105.046,84.367 105.767,83.386 106.981 C 82.895 107.589,82.319 109.406,81.878 111.736 C 81.486 113.811,80.793 116.112,80.340 116.849 C 78.528 119.796,78.548 119.111,78.384 184.071 C 78.214 251.824,78.284 254.705,80.179 258.575 C 80.852 259.950,81.609 262.462,81.962 264.494 C 82.350 266.730,82.869 268.388,83.378 269.017 C 84.364 270.236,84.686 270.961,85.518 273.835 C 85.876 275.073,86.580 276.577,87.082 277.178 C 87.584 277.778,88.133 278.712,88.303 279.253 C 88.680 280.459,90.270 283.021,90.872 283.393 C 91.115 283.543,91.650 284.451,92.062 285.411 C 94.010 289.955,106.385 302.445,111.055 304.579 C 111.951 304.989,112.932 305.676,113.234 306.105 C 113.536 306.535,114.952 307.416,116.381 308.064 C 117.809 308.711,119.462 309.649,120.054 310.147 C 120.647 310.645,122.151 311.271,123.398 311.537 C 124.672 311.810,126.099 312.421,126.658 312.933 C 127.867 314.041,129.098 314.459,132.940 315.068 C 134.562 315.324,136.332 315.840,136.873 316.213 C 140.098 318.436,143.864 318.558,209.440 318.566 C 274.393 318.573,277.953 318.451,280.756 316.117 C 281.075 315.852,283.025 315.334,285.088 314.968 C 287.513 314.537,289.196 314.013,289.848 313.487 C 291.083 312.489,291.802 312.169,294.680 311.336 C 295.919 310.977,297.423 310.272,298.023 309.769 C 298.624 309.265,300.027 308.462,301.141 307.984 C 302.256 307.506,303.578 306.677,304.080 306.143 C 304.583 305.608,305.706 304.848,306.577 304.454 C 309.476 303.142,318.886 294.573,321.319 291.029 C 321.830 290.285,322.743 289.145,323.346 288.496 C 323.950 287.847,324.734 286.620,325.089 285.769 C 325.444 284.918,326.219 283.768,326.811 283.212 C 327.403 282.657,328.213 281.318,328.610 280.236 C 329.008 279.154,329.743 277.820,330.245 277.271 C 331.166 276.264,332.338 273.069,332.346 271.546 C 332.348 271.093,332.728 270.385,333.191 269.972 C 334.376 268.916,334.955 267.341,335.488 263.717 C 335.793 261.648,336.271 260.099,336.884 259.194 C 338.842 256.303,338.782 258.244,338.932 192.330 C 339.088 123.818,339.017 120.883,337.088 117.011 C 336.442 115.713,335.707 113.412,335.456 111.898 C 334.898 108.545,334.502 107.432,333.474 106.335 C 333.040 105.871,332.415 104.308,332.085 102.862 C 331.709 101.213,331.087 99.768,330.417 98.986 C 329.830 98.300,329.021 96.853,328.619 95.772 C 328.217 94.690,327.403 93.351,326.811 92.796 C 326.219 92.240,325.467 91.146,325.140 90.364 C 323.962 87.545,318.917 81.535,313.996 77.089 C 309.359 72.900,308.629 72.321,306.845 71.417 C 305.811 70.893,304.723 70.172,304.426 69.815 C 304.130 69.458,303.226 68.828,302.418 68.416 C 301.611 68.004,300.148 67.126,299.167 66.464 C 298.187 65.803,296.447 64.932,295.300 64.529 C 294.154 64.126,292.153 63.247,290.855 62.575 C 289.558 61.904,287.257 61.107,285.742 60.805 C 284.228 60.503,281.927 59.806,280.629 59.257 C 279.331 58.708,276.770 58.071,274.937 57.841 C 270.820 57.326,147.360 57.357,142.398 57.876 M275.320 59.707 C 276.942 60.201,280.039 61.050,282.203 61.594 C 287.894 63.025,297.115 67.217,302.458 70.803 C 303.648 71.602,305.403 72.768,306.358 73.394 C 311.394 76.697,321.769 87.489,323.898 91.640 C 324.286 92.396,325.284 93.916,326.117 95.019 C 326.949 96.121,327.630 97.195,327.630 97.406 C 327.630 97.616,328.319 98.930,329.161 100.326 C 330.003 101.722,330.957 103.746,331.282 104.824 C 331.607 105.902,332.332 107.670,332.894 108.751 C 333.456 109.833,334.263 112.399,334.688 114.454 C 335.114 116.509,335.809 119.164,336.233 120.354 C 337.812 124.785,337.856 126.635,337.856 188.201 C 337.856 249.804,337.809 251.783,336.229 255.791 C 335.799 256.883,335.116 259.382,334.712 261.346 C 334.308 263.309,333.346 266.234,332.574 267.845 C 331.802 269.456,331.162 271.045,331.152 271.375 C 331.115 272.558,325.527 282.127,322.004 287.040 C 319.756 290.174,311.805 298.335,308.751 300.643 C 305.694 302.953,300.220 306.525,298.132 307.573 C 297.158 308.061,295.919 308.769,295.379 309.147 C 294.838 309.524,293.156 310.285,291.642 310.838 C 290.128 311.392,288.201 312.204,287.360 312.643 C 286.519 313.082,284.483 313.728,282.837 314.078 C 281.190 314.428,278.502 315.147,276.863 315.675 C 271.679 317.347,269.671 317.398,209.046 317.394 C 149.490 317.390,145.477 317.298,141.333 315.842 C 140.110 315.412,137.426 314.696,135.369 314.250 C 133.312 313.804,130.386 312.827,128.867 312.079 C 127.347 311.330,125.846 310.718,125.531 310.718 C 124.117 310.718,114.582 305.000,108.751 300.656 C 105.266 298.060,97.537 290.063,95.065 286.498 C 90.959 280.575,90.445 279.768,89.463 277.709 C 88.903 276.536,88.114 275.155,87.709 274.640 C 87.304 274.125,86.583 272.519,86.107 271.070 C 85.631 269.622,84.838 267.729,84.345 266.863 C 83.852 265.998,83.087 263.609,82.645 261.554 C 82.203 259.499,81.484 256.781,81.046 255.515 C 79.510 251.071,79.449 248.522,79.449 188.490 C 79.449 127.266,79.508 124.993,81.210 119.987 C 81.724 118.478,82.438 115.775,82.798 113.981 C 83.158 112.186,83.854 110.010,84.346 109.145 C 84.838 108.279,85.620 106.421,86.084 105.015 C 86.548 103.609,87.289 101.927,87.731 101.278 C 88.172 100.629,89.060 99.036,89.702 97.738 C 90.838 95.444,91.531 94.364,95.461 88.760 C 97.601 85.709,106.092 77.135,109.341 74.743 C 112.804 72.194,118.542 68.437,118.974 68.435 C 119.192 68.434,120.167 67.903,121.141 67.256 C 122.114 66.608,123.530 65.881,124.287 65.641 C 125.044 65.400,127.002 64.608,128.637 63.882 C 130.273 63.155,132.839 62.279,134.340 61.936 C 135.842 61.592,138.477 60.871,140.196 60.333 C 145.347 58.720,146.549 58.693,210.619 58.752 L 272.370 58.810 275.320 59.707 M182.959 117.438 C 175.223 119.131,168.787 124.820,165.518 132.852 C 163.754 137.187,161.842 139.618,158.899 141.268 C 155.057 143.421,150.795 147.991,148.591 152.319 C 148.125 153.234,147.267 154.602,146.683 155.359 C 145.127 157.377,144.509 162.092,144.677 170.661 C 144.845 179.262,144.679 180.407,143.002 182.238 C 138.430 187.230,135.935 206.398,139.275 210.874 C 139.817 211.599,140.641 213.208,141.108 214.449 C 142.119 217.142,145.261 221.878,147.306 223.795 C 149.625 225.969,151.032 228.422,151.032 230.290 C 151.032 238.338,157.923 249.437,165.192 253.097 C 166.685 253.849,168.515 254.999,169.258 255.651 C 172.836 258.792,189.072 259.887,192.920 257.246 C 193.786 256.653,195.367 255.838,196.435 255.436 C 198.447 254.678,202.544 252.060,204.886 250.036 C 208.049 247.302,209.876 247.573,213.766 251.352 C 214.886 252.440,216.492 253.530,217.495 253.883 C 218.464 254.224,220.145 255.097,221.231 255.822 C 225.605 258.744,239.835 259.873,243.832 257.615 C 244.601 257.180,246.205 256.385,247.394 255.847 C 251.988 253.772,254.857 251.674,259.008 247.353 L 262.559 243.658 263.812 239.528 C 265.373 234.380,265.858 232.245,265.870 230.460 C 265.884 228.546,267.465 226.185,271.645 221.841 C 274.381 218.998,275.349 217.676,276.183 215.644 C 276.766 214.224,277.430 212.875,277.658 212.647 C 277.886 212.419,278.073 211.642,278.073 210.922 C 278.073 210.201,278.446 208.511,278.902 207.166 C 280.214 203.296,279.341 192.689,277.488 189.971 C 276.972 189.213,276.187 187.665,275.744 186.530 C 275.301 185.394,274.503 183.801,273.972 182.990 C 272.485 180.719,272.009 178.205,272.403 174.699 C 272.590 173.039,272.703 169.204,272.655 166.175 L 272.567 160.669 270.132 155.752 C 266.406 148.227,263.528 144.603,257.817 140.242 C 254.060 137.373,253.517 136.717,252.175 133.418 C 250.108 128.340,243.607 121.298,239.002 119.150 C 230.622 115.240,219.305 116.415,212.689 121.882 C 209.302 124.681,207.433 124.695,204.326 121.945 C 199.747 117.890,190.144 115.865,182.959 117.438 M192.920 118.425 C 193.786 118.660,195.556 119.347,196.853 119.951 C 198.151 120.556,200.028 121.341,201.023 121.696 C 202.156 122.100,202.992 122.689,203.257 123.273 C 203.516 123.840,204.653 124.664,206.167 125.380 L 208.653 126.556 210.875 125.436 C 212.097 124.820,213.513 123.799,214.021 123.168 C 214.947 122.019,219.777 119.768,223.992 118.521 C 226.982 117.637,231.291 118.027,234.648 119.484 C 236.142 120.133,237.984 120.794,238.741 120.954 C 241.892 121.616,249.858 130.934,250.942 135.224 C 251.440 137.196,253.521 139.670,256.021 141.263 C 258.409 142.784,264.220 148.534,265.087 150.234 C 265.477 150.997,266.162 151.953,266.608 152.356 C 267.054 152.760,267.798 154.226,268.259 155.614 C 268.721 157.003,269.500 158.619,269.990 159.207 C 270.623 159.967,270.952 161.014,271.131 162.832 C 271.269 164.238,271.491 166.288,271.624 167.387 C 271.795 168.794,271.606 170.515,270.984 173.205 L 270.102 177.025 271.182 180.449 C 271.776 182.333,272.687 184.441,273.207 185.134 C 277.610 191.004,280.041 204.564,277.224 207.546 C 276.472 208.342,276.125 209.204,275.986 210.619 C 275.520 215.365,275.118 216.081,270.131 221.037 C 265.180 225.958,264.649 226.840,264.134 230.993 C 263.979 232.248,263.526 234.017,263.127 234.926 C 262.729 235.835,262.285 237.286,262.142 238.151 C 261.597 241.442,260.745 243.384,259.395 244.414 C 258.665 244.971,257.954 245.783,257.816 246.218 C 257.678 246.654,257.057 247.272,256.436 247.593 C 255.815 247.914,254.994 248.707,254.611 249.356 C 254.228 250.004,253.377 250.714,252.719 250.934 C 252.062 251.154,250.742 251.956,249.785 252.716 C 248.829 253.477,247.590 254.209,247.032 254.343 C 246.474 254.477,245.044 255.078,243.854 255.680 C 239.002 258.132,232.751 258.531,228.759 256.642 C 227.642 256.114,225.758 255.469,224.573 255.210 C 223.306 254.933,221.713 254.206,220.706 253.444 C 219.763 252.732,218.133 251.864,217.083 251.515 C 215.686 251.051,214.948 250.515,214.330 249.516 C 213.777 248.622,212.663 247.735,211.100 246.946 L 208.714 245.741 206.367 246.863 C 205.067 247.484,203.578 248.564,203.029 249.283 C 202.484 249.998,201.402 250.848,200.626 251.173 C 199.849 251.497,198.765 252.192,198.217 252.717 C 197.669 253.242,196.177 254.030,194.901 254.469 C 193.626 254.908,192.304 255.506,191.964 255.798 C 190.930 256.687,188.797 257.227,186.274 257.237 C 184.954 257.242,183.202 257.402,182.380 257.593 C 180.711 257.980,178.735 257.595,176.598 256.464 C 175.841 256.064,174.185 255.509,172.918 255.230 C 171.364 254.888,170.251 254.360,169.496 253.605 C 168.396 252.504,165.486 250.960,164.482 250.943 C 163.907 250.933,159.292 246.371,159.292 245.813 C 159.292 245.616,158.754 244.842,158.096 244.093 C 157.438 243.344,156.475 241.684,155.955 240.406 C 155.435 239.127,154.558 237.229,154.005 236.189 C 153.239 234.749,152.999 233.719,152.999 231.870 C 152.999 228.015,152.218 226.397,148.466 222.477 C 146.633 220.561,145.133 218.753,145.133 218.459 C 145.133 218.164,144.624 217.342,144.002 216.631 C 143.380 215.921,142.547 214.308,142.150 213.047 C 141.754 211.787,141.027 210.321,140.535 209.789 C 138.708 207.818,138.331 198.593,139.934 195.075 C 140.377 194.102,141.009 191.889,141.337 190.159 C 142.165 185.795,142.545 184.968,144.605 183.049 L 146.408 181.371 146.132 174.953 C 145.740 165.814,145.814 164.166,146.711 162.140 C 147.141 161.168,147.493 159.677,147.493 158.828 C 147.493 157.829,147.840 156.773,148.476 155.837 C 149.017 155.041,149.466 154.210,149.475 153.989 C 149.484 153.769,150.015 152.976,150.655 152.227 C 151.295 151.478,151.819 150.707,151.819 150.514 C 151.819 149.220,157.813 143.753,161.074 142.072 C 163.743 140.697,165.945 137.659,166.744 134.251 C 167.007 133.133,167.561 131.911,167.976 131.535 C 168.392 131.159,168.732 130.685,168.732 130.482 C 168.732 129.663,171.285 125.914,172.237 125.337 C 172.797 124.998,174.051 124.003,175.025 123.127 C 176.172 122.095,177.694 121.239,179.351 120.695 C 180.757 120.233,182.262 119.658,182.694 119.416 C 185.054 118.100,189.965 117.624,192.920 118.425 M185.321 128.108 C 184.818 128.204,183.821 128.667,183.104 129.136 C 182.387 129.606,181.294 130.267,180.674 130.606 C 179.898 131.030,179.252 131.948,178.597 133.556 C 178.075 134.839,177.146 136.471,176.533 137.182 C 175.073 138.873,174.844 146.201,176.169 148.800 C 177.046 150.520,176.818 151.893,175.097 155.260 L 174.041 157.324 172.075 157.309 C 170.294 157.297,170.033 157.176,169.316 156.032 C 167.133 152.549,163.683 151.503,162.140 153.857 C 161.547 154.761,160.440 156.133,159.680 156.905 C 154.294 162.375,153.655 169.888,158.312 172.988 C 161.592 175.172,162.279 180.380,159.512 182.090 C 158.823 182.516,158.035 183.283,157.762 183.794 C 157.488 184.306,156.748 185.029,156.118 185.401 C 155.487 185.774,154.771 186.467,154.525 186.943 C 154.280 187.418,153.432 188.441,152.641 189.215 C 149.784 192.012,147.928 201.758,149.575 205.313 C 149.925 206.068,150.587 207.707,151.046 208.954 C 152.965 214.171,160.297 220.656,164.922 221.227 C 170.165 221.875,170.810 222.125,172.604 224.208 L 174.299 226.175 173.492 227.837 C 172.541 229.798,171.867 230.268,168.519 231.302 C 162.937 233.026,163.859 239.205,170.179 242.423 C 170.866 242.773,171.543 243.420,171.683 243.861 C 172.808 247.403,183.172 248.694,189.658 246.100 C 195.620 243.715,199.770 239.792,202.852 233.628 C 203.725 231.880,204.129 199.698,203.314 196.763 C 202.517 193.893,200.555 193.442,196.768 195.257 C 195.734 195.753,194.444 196.291,193.904 196.453 C 193.363 196.615,192.556 197.080,192.111 197.486 C 190.439 199.012,187.855 198.915,186.849 197.287 C 186.364 196.502,185.639 195.685,185.238 195.470 C 183.426 194.500,186.428 190.269,190.306 188.329 C 192.931 187.015,197.822 182.685,197.852 181.649 C 197.860 181.359,198.536 180.659,199.354 180.094 C 200.652 179.197,201.026 178.545,202.305 174.956 L 203.769 170.846 203.655 154.351 C 203.526 135.921,203.713 137.165,200.541 133.566 C 199.393 132.263,197.940 131.202,196.076 130.306 C 194.557 129.575,192.871 128.721,192.330 128.408 C 191.390 127.863,187.482 127.696,185.321 128.108 M223.599 128.351 C 219.634 129.910,218.063 131.277,216.513 134.514 C 215.944 135.704,215.066 137.253,214.562 137.957 C 212.395 140.983,212.768 172.277,215.007 175.325 C 215.441 175.917,216.118 177.246,216.510 178.279 C 217.562 181.050,222.581 185.920,226.697 188.163 C 230.348 190.153,230.975 190.744,231.641 192.817 C 231.900 193.625,232.277 194.388,232.479 194.512 C 232.680 194.637,232.352 195.153,231.750 195.660 C 231.148 196.166,230.410 197.040,230.109 197.602 C 229.522 198.699,226.129 199.141,225.545 198.197 C 223.820 195.407,215.567 194.289,214.179 196.657 C 212.295 199.872,212.884 230.581,214.888 233.613 C 215.394 234.379,216.160 235.802,216.590 236.777 C 217.327 238.445,222.402 243.967,224.401 245.278 C 225.832 246.215,232.096 247.777,234.444 247.783 C 238.780 247.792,247.444 243.909,249.087 241.221 C 249.260 240.936,250.212 239.905,251.202 238.929 C 254.142 236.031,253.122 232.830,248.813 231.427 C 245.754 230.430,244.700 229.672,243.807 227.828 L 242.990 226.140 244.461 224.476 C 245.270 223.561,246.044 222.684,246.181 222.527 C 246.318 222.371,248.179 221.891,250.316 221.461 C 253.163 220.888,254.476 220.425,255.223 219.728 C 255.785 219.205,256.914 218.563,257.733 218.301 C 259.350 217.785,265.098 212.315,266.138 210.304 C 269.906 203.018,268.014 192.120,261.947 186.156 C 261.406 185.624,259.954 184.213,258.721 183.020 C 254.937 179.362,255.052 177.714,259.394 173.378 L 262.027 170.749 261.889 167.216 C 261.779 164.407,261.583 163.455,260.934 162.569 C 260.485 161.957,259.784 160.519,259.376 159.375 C 258.529 157.000,254.035 151.923,252.980 152.148 C 252.639 152.221,250.979 153.064,249.291 154.022 C 245.538 156.151,243.443 156.047,239.991 153.557 C 239.921 153.507,240.123 152.962,240.441 152.347 C 242.055 149.222,242.589 139.271,241.303 136.283 C 239.018 130.973,228.693 126.347,223.599 128.351 M194.012 131.220 C 198.197 133.322,199.591 134.577,200.963 137.481 L 202.163 140.022 202.163 154.979 C 202.163 167.872,202.076 170.139,201.529 171.399 C 201.180 172.203,200.578 173.876,200.190 175.116 C 199.051 178.763,193.817 184.423,189.564 186.608 C 182.936 190.013,181.408 195.618,186.170 199.067 C 188.076 200.448,190.779 200.335,193.216 198.771 C 196.955 196.372,200.335 195.912,201.744 197.609 C 202.073 198.005,202.164 202.583,202.079 214.416 L 201.962 230.678 200.694 233.564 C 197.532 240.763,188.781 246.312,181.522 245.722 C 176.377 245.303,174.824 244.558,170.318 240.349 L 166.201 236.504 166.883 235.462 C 167.259 234.890,168.483 233.956,169.604 233.388 C 174.413 230.951,175.418 229.769,175.418 226.548 C 175.418 223.373,172.999 221.279,168.338 220.419 C 156.721 218.276,148.987 207.255,151.421 196.314 C 152.244 192.616,153.271 191.000,157.894 186.127 C 162.198 181.591,162.339 181.386,162.580 179.319 C 163.029 175.478,162.406 174.094,159.141 171.681 C 156.314 169.593,157.064 161.576,160.369 158.555 C 161.227 157.771,162.335 156.496,162.832 155.723 L 163.735 154.318 165.840 155.458 C 166.998 156.085,167.945 156.723,167.945 156.877 C 167.945 158.157,173.374 159.069,174.710 158.014 C 175.274 157.568,176.806 155.389,178.067 153.238 C 178.843 151.913,178.668 149.530,177.694 148.162 C 176.309 146.216,176.149 140.169,177.437 138.403 C 177.949 137.701,178.899 136.053,179.548 134.742 C 181.934 129.920,188.324 128.364,194.012 131.220 M232.952 131.305 C 239.623 134.387,242.580 139.954,240.409 145.344 C 238.995 148.856,238.185 153.335,238.767 154.423 C 240.254 157.201,245.667 158.493,248.043 156.636 C 248.876 155.986,250.433 155.166,251.503 154.814 L 253.448 154.174 254.745 155.431 C 257.329 157.936,259.738 163.727,259.762 167.496 L 259.784 170.783 257.547 172.805 C 252.934 176.976,253.319 180.898,258.811 185.706 C 272.240 197.462,266.531 216.998,248.652 220.478 C 242.651 221.646,240.441 224.959,242.458 229.761 C 242.790 230.550,244.833 231.939,248.060 233.567 C 250.191 234.643,250.934 235.369,250.934 236.376 C 250.934 237.275,246.564 241.247,243.741 242.914 C 233.197 249.140,222.095 245.150,216.624 233.168 L 214.948 229.499 214.947 214.121 C 214.946 197.124,214.844 197.800,217.521 196.998 C 218.890 196.588,219.183 196.647,220.916 197.683 C 224.832 200.024,227.998 200.666,230.282 199.582 C 232.145 198.698,234.146 195.651,233.851 194.149 C 233.728 193.528,233.628 192.762,233.628 192.449 C 233.628 191.583,229.424 187.360,228.000 186.796 C 224.085 185.243,219.058 180.094,217.299 175.835 C 215.147 170.623,214.946 168.792,214.946 154.376 L 214.946 141.003 216.462 138.053 C 219.216 132.693,220.363 131.504,223.829 130.416 C 227.038 129.409,229.333 129.633,232.952 131.305 " stroke="none" fill="#c0bae4" fill-rule="evenodd"/></g></svg>